solid front cover
facet normal 9.032382509150089e-19 -2.1443982358075157e-17 -1.0
  outer loop
    vertex 41.00000000000001 3.9999999999999996 7.999999999999999
    vertex 25.999999999999996 2.0000000000000004 7.999999999999999
    vertex 25.999999999999996 3.9999999999999996 7.999999999999999
  endloop
endfacet
facet normal 9.032382509150089e-19 -2.1443982358075157e-17 -1.0
  outer loop
    vertex 57.50000000000001 3.9999999999999996 7.999999999999999
    vertex 51.00000000000002 1.9999999999999998 8.0
    vertex 51.00000000000002 3.9999999999999996 7.999999999999999
  endloop
endfacet
facet normal 9.032382509150089e-19 -2.1443982358075157e-17 -1.0
  outer loop
    vertex 79.5 3.9999999999999996 7.999999999999999
    vertex 77.5 2.0000000000000013 7.999999999999999
    vertex 77.5 3.9999999999999996 7.999999999999999
  endloop
endfacet
facet normal 9.032382509150089e-19 -2.1443982358075157e-17 -1.0
  outer loop
    vertex 4.000000000000001 3.9999999999999996 7.999999999999999
    vertex 0.0 0.0 7.999999999999999
    vertex 0.0 3.9999999999999996 7.999999999999999
  endloop
endfacet
facet normal 9.032382509150089e-19 -2.1443982358075157e-17 -1.0
  outer loop
    vertex 0.0 0.0 7.999999999999999
    vertex 4.000000000000001 3.9999999999999996 7.999999999999999
    vertex 4.000000000000001 2.0000000000000004 7.999999999999999
  endloop
endfacet
facet normal 9.032382509150089e-19 -2.1443982358075157e-17 -1.0
  outer loop
    vertex 0.0 0.0 7.999999999999999
    vertex 4.000000000000001 2.0000000000000004 7.999999999999999
    vertex 79.5 0.0 7.999999999999999
  endloop
endfacet
facet normal 9.032382509150089e-19 -2.1443982358075157e-17 -1.0
  outer loop
    vertex 79.5 0.0 7.999999999999999
    vertex 4.000000000000001 2.0000000000000004 7.999999999999999
    vertex 25.999999999999996 2.0000000000000004 7.999999999999999
  endloop
endfacet
facet normal 9.032382509150089e-19 -2.1443982358075157e-17 -1.0
  outer loop
    vertex 79.5 0.0 7.999999999999999
    vertex 25.999999999999996 2.0000000000000004 7.999999999999999
    vertex 41.00000000000001 1.9999999999999998 7.999999999999999
  endloop
endfacet
facet normal 9.032382509150089e-19 -2.1443982358075157e-17 -1.0
  outer loop
    vertex 41.00000000000001 1.9999999999999998 7.999999999999999
    vertex 25.999999999999996 2.0000000000000004 7.999999999999999
    vertex 41.00000000000001 3.9999999999999996 7.999999999999999
  endloop
endfacet
facet normal 9.032382509150089e-19 -2.1443982358075157e-17 -1.0
  outer loop
    vertex 79.5 0.0 7.999999999999999
    vertex 41.00000000000001 1.9999999999999998 7.999999999999999
    vertex 51.00000000000002 1.9999999999999998 8.0
  endloop
endfacet
facet normal 9.032382509150089e-19 -2.1443982358075157e-17 -1.0
  outer loop
    vertex 79.5 0.0 7.999999999999999
    vertex 51.00000000000002 1.9999999999999998 8.0
    vertex 57.50000000000001 2.0000000000000013 7.999999999999999
  endloop
endfacet
facet normal 9.032382509150089e-19 -2.1443982358075157e-17 -1.0
  outer loop
    vertex 57.50000000000001 2.0000000000000013 7.999999999999999
    vertex 51.00000000000002 1.9999999999999998 8.0
    vertex 57.50000000000001 3.9999999999999996 7.999999999999999
  endloop
endfacet
facet normal 9.032382509150089e-19 -2.1443982358075157e-17 -1.0
  outer loop
    vertex 79.5 0.0 7.999999999999999
    vertex 57.50000000000001 2.0000000000000013 7.999999999999999
    vertex 77.5 2.0000000000000013 7.999999999999999
  endloop
endfacet
facet normal 9.032382509150089e-19 -2.1443982358075157e-17 -1.0
  outer loop
    vertex 79.5 0.0 7.999999999999999
    vertex 77.5 2.0000000000000013 7.999999999999999
    vertex 79.5 3.9999999999999996 7.999999999999999
  endloop
endfacet
facet normal -0.0 1.0 -0.0
  outer loop
    vertex 0.0 0.0 -0.9999999999999999
    vertex 37.31993043620374 0.0 0.5064934425203083
    vertex 79.5 0.0 -0.9999999999999999
  endloop
endfacet
facet normal -0.0 1.0 -0.0
  outer loop
    vertex 37.31993043620374 0.0 0.5064934425203083
    vertex 0.0 0.0 -0.9999999999999999
    vertex 0.0 0.0 7.999999999999999
  endloop
endfacet
facet normal -0.0 1.0 -0.0
  outer loop
    vertex 79.5 0.0 -0.9999999999999999
    vertex 37.31993043620374 0.0 0.5064934425203083
    vertex 79.5 0.0 0.0
  endloop
endfacet
facet normal -0.0 1.0 -0.0
  outer loop
    vertex 37.31993043620374 0.0 0.5064934425203083
    vertex 0.0 0.0 7.999999999999999
    vertex 36.68069917163681 0.0 0.6380630506629938
  endloop
endfacet
facet normal -0.0 1.0 -0.0
  outer loop
    vertex 36.68069917163681 0.0 0.6380630506629938
    vertex 0.0 0.0 7.999999999999999
    vertex 36.09730190456421 0.0 0.9305947586176354
  endloop
endfacet
facet normal -0.0 1.0 -0.0
  outer loop
    vertex 36.09730190456421 0.0 0.9305947586176354
    vertex 0.0 0.0 7.999999999999999
    vertex 35.60949619462735 0.0 1.3641530139186262
  endloop
endfacet
facet normal -0.0 1.0 -0.0
  outer loop
    vertex 35.60949619462735 0.0 1.3641530139186262
    vertex 0.0 0.0 7.999999999999999
    vertex 35.25052519482137 0.0 1.9091915379560984
  endloop
endfacet
facet normal -0.0 1.0 -0.0
  outer loop
    vertex 35.25052519482137 0.0 1.9091915379560984
    vertex 0.0 0.0 7.999999999999999
    vertex 35.04485218555544 0.0 2.5285668560356487
  endloop
endfacet
facet normal -0.0 1.0 -0.0
  outer loop
    vertex 35.04485218555544 0.0 2.5285668560356487
    vertex 0.0 0.0 7.999999999999999
    vertex 35.00649344252031 0.0 3.1800695637962613
  endloop
endfacet
facet normal -0.0 1.0 -0.0
  outer loop
    vertex 35.00649344252031 0.0 3.1800695637962613
    vertex 0.0 0.0 7.999999999999999
    vertex 35.13806305066299 0.0 3.819300828363183
  endloop
endfacet
facet normal -0.0 1.0 -0.0
  outer loop
    vertex 35.13806305066299 0.0 3.819300828363183
    vertex 0.0 0.0 7.999999999999999
    vertex 35.43059475861763 0.0 4.40269809543579
  endloop
endfacet
facet normal -0.0 1.0 -0.0
  outer loop
    vertex 35.43059475861763 0.0 4.40269809543579
    vertex 0.0 0.0 7.999999999999999
    vertex 35.864153013918624 0.0 4.890503805372653
  endloop
endfacet
facet normal -0.0 1.0 -0.0
  outer loop
    vertex 35.864153013918624 0.0 4.890503805372653
    vertex 0.0 0.0 7.999999999999999
    vertex 36.4091915379561 0.0 5.249474805178625
  endloop
endfacet
facet normal -0.0 1.0 -0.0
  outer loop
    vertex 36.4091915379561 0.0 5.249474805178625
    vertex 0.0 0.0 7.999999999999999
    vertex 37.028566856035646 0.0 5.455147814444557
  endloop
endfacet
facet normal -0.0 1.0 -0.0
  outer loop
    vertex 37.028566856035646 0.0 5.455147814444557
    vertex 0.0 0.0 7.999999999999999
    vertex 37.68006956379626 0.0 5.493506557479692
  endloop
endfacet
facet normal -0.0 1.0 -0.0
  outer loop
    vertex 79.5 0.0 0.0
    vertex 37.97143314396435 0.0 0.5448521855554427
    vertex 79.5 0.0 7.999999999999999
  endloop
endfacet
facet normal -0.0 1.0 -0.0
  outer loop
    vertex 37.97143314396435 0.0 0.5448521855554427
    vertex 79.5 0.0 0.0
    vertex 37.31993043620374 0.0 0.5064934425203083
  endloop
endfacet
facet normal -0.0 1.0 -0.0
  outer loop
    vertex 79.5 0.0 7.999999999999999
    vertex 37.97143314396435 0.0 0.5448521855554427
    vertex 38.5908084620439 0.0 0.7505251948213743
  endloop
endfacet
facet normal -0.0 1.0 -0.0
  outer loop
    vertex 79.5 0.0 7.999999999999999
    vertex 38.5908084620439 0.0 0.7505251948213743
    vertex 39.13584698608137 0.0 1.109496194627347
  endloop
endfacet
facet normal -0.0 1.0 -0.0
  outer loop
    vertex 79.5 0.0 7.999999999999999
    vertex 39.13584698608137 0.0 1.109496194627347
    vertex 39.56940524138236 0.0 1.5973019045642096
  endloop
endfacet
facet normal -0.0 1.0 -0.0
  outer loop
    vertex 79.5 0.0 7.999999999999999
    vertex 39.56940524138236 0.0 1.5973019045642096
    vertex 39.86193694933701 0.0 2.1806991716368174
  endloop
endfacet
facet normal -0.0 1.0 -0.0
  outer loop
    vertex 79.5 0.0 7.999999999999999
    vertex 39.86193694933701 0.0 2.1806991716368174
    vertex 39.99350655747969 0.0 2.819930436203739
  endloop
endfacet
facet normal -0.0 1.0 -0.0
  outer loop
    vertex 79.5 0.0 7.999999999999999
    vertex 39.99350655747969 0.0 2.819930436203739
    vertex 39.95514781444456 0.0 3.471433143964352
  endloop
endfacet
facet normal -0.0 1.0 -0.0
  outer loop
    vertex 79.5 0.0 7.999999999999999
    vertex 39.95514781444456 0.0 3.471433143964352
    vertex 39.74947480517863 0.0 4.090808462043902
  endloop
endfacet
facet normal -0.0 1.0 -0.0
  outer loop
    vertex 79.5 0.0 7.999999999999999
    vertex 39.74947480517863 0.0 4.090808462043902
    vertex 39.39050380537265 0.0 4.635846986081374
  endloop
endfacet
facet normal -0.0 1.0 -0.0
  outer loop
    vertex 79.5 0.0 7.999999999999999
    vertex 39.39050380537265 0.0 4.635846986081374
    vertex 38.90269809543579 0.0 5.0694052413823645
  endloop
endfacet
facet normal -0.0 1.0 -0.0
  outer loop
    vertex 79.5 0.0 7.999999999999999
    vertex 38.90269809543579 0.0 5.0694052413823645
    vertex 38.31930082836318 0.0 5.3619369493370055
  endloop
endfacet
facet normal -0.0 1.0 -0.0
  outer loop
    vertex 79.5 0.0 7.999999999999999
    vertex 38.31930082836318 0.0 5.3619369493370055
    vertex 37.68006956379626 0.0 5.493506557479692
  endloop
endfacet
facet normal -0.0 1.0 -0.0
  outer loop
    vertex 79.5 0.0 7.999999999999999
    vertex 37.68006956379626 0.0 5.493506557479692
    vertex 0.0 0.0 7.999999999999999
  endloop
endfacet
facet normal 0.0 0.0 -1.0
  outer loop
    vertex 56.0 9.000000000000004 7.999999999999999
    vertex 25.999999999999996 6.0 7.999999999999999
    vertex 25.999999999999996 9.000000000000002 7.999999999999999
  endloop
endfacet
facet normal 0.0 0.0 -1.0
  outer loop
    vertex 25.999999999999996 6.0 7.999999999999999
    vertex 56.0 9.000000000000004 7.999999999999999
    vertex 56.0 6.0 7.999999999999999
  endloop
endfacet
facet normal -0.0 1.0 -0.0
  outer loop
    vertex 25.999999999999996 6.0 3.0
    vertex 37.30593704496906 6.0 1.5126064510410626
    vertex 25.999999999999996 6.0 1.0000000000000002
  endloop
endfacet
facet normal -0.0 1.0 -0.0
  outer loop
    vertex 37.30593704496906 6.0 1.5126064510410626
    vertex 25.999999999999996 6.0 3.0
    vertex 36.92758380177644 6.0 1.61351534591569
  endloop
endfacet
facet normal -0.0 1.0 -0.0
  outer loop
    vertex 36.92758380177644 6.0 1.61351534591569
    vertex 25.999999999999996 6.0 3.0
    vertex 36.588239776530266 6.0 1.808910878691936
  endloop
endfacet
facet normal -0.0 1.0 -0.0
  outer loop
    vertex 36.588239776530266 6.0 1.808910878691936
    vertex 25.999999999999996 6.0 3.0
    vertex 36.31103070375853 6.0 2.085477166717486
  endloop
endfacet
facet normal -0.0 1.0 -0.0
  outer loop
    vertex 36.31103070375853 6.0 2.085477166717486
    vertex 25.999999999999996 6.0 3.0
    vertex 36.114847923660996 6.0 2.424366674510801
  endloop
endfacet
facet normal -0.0 1.0 -0.0
  outer loop
    vertex 36.114847923660996 6.0 2.424366674510801
    vertex 25.999999999999996 6.0 3.0
    vertex 36.013060968493924 6.0 2.8024846421571556
  endloop
endfacet
facet normal -0.0 1.0 -0.0
  outer loop
    vertex 36.013060968493924 6.0 2.8024846421571556
    vertex 25.999999999999996 6.0 3.0
    vertex 36.01260645104106 6.0 3.194062955030938
  endloop
endfacet
facet normal -0.0 1.0 -0.0
  outer loop
    vertex 36.01260645104106 6.0 3.194062955030938
    vertex 25.999999999999996 6.0 3.0
    vertex 25.999999999999996 6.0 7.999999999999999
  endloop
endfacet
facet normal -0.0 1.0 -0.0
  outer loop
    vertex 36.01260645104106 6.0 3.194062955030938
    vertex 25.999999999999996 6.0 7.999999999999999
    vertex 36.11351534591569 6.0 3.5724161982235594
  endloop
endfacet
facet normal -0.0 1.0 -0.0
  outer loop
    vertex 36.11351534591569 6.0 3.5724161982235594
    vertex 25.999999999999996 6.0 7.999999999999999
    vertex 36.30891087869193 6.0 3.9117602234697384
  endloop
endfacet
facet normal -0.0 1.0 -0.0
  outer loop
    vertex 36.30891087869193 6.0 3.9117602234697384
    vertex 25.999999999999996 6.0 7.999999999999999
    vertex 36.58547716671748 6.0 4.188969296241466
  endloop
endfacet
facet normal -0.0 1.0 -0.0
  outer loop
    vertex 36.58547716671748 6.0 4.188969296241466
    vertex 25.999999999999996 6.0 7.999999999999999
    vertex 36.9243666745108 6.0 4.385152076339002
  endloop
endfacet
facet normal -0.0 1.0 -0.0
  outer loop
    vertex 36.9243666745108 6.0 4.385152076339002
    vertex 25.999999999999996 6.0 7.999999999999999
    vertex 37.302484642157154 6.0 4.486939031506073
  endloop
endfacet
facet normal -0.0 1.0 -0.0
  outer loop
    vertex 37.302484642157154 6.0 4.486939031506073
    vertex 25.999999999999996 6.0 7.999999999999999
    vertex 37.69406295503094 6.0 4.487393548958937
  endloop
endfacet
facet normal -0.0 1.0 -0.0
  outer loop
    vertex 56.0 6.0 0.9999999999999996
    vertex 37.697515357842846 6.0 1.513060968493928
    vertex 56.0 6.0 2.9999999999999996
  endloop
endfacet
facet normal -0.0 1.0 -0.0
  outer loop
    vertex 37.697515357842846 6.0 1.513060968493928
    vertex 56.0 6.0 0.9999999999999996
    vertex 25.999999999999996 6.0 1.0000000000000002
  endloop
endfacet
facet normal -0.0 1.0 -0.0
  outer loop
    vertex 37.697515357842846 6.0 1.513060968493928
    vertex 25.999999999999996 6.0 1.0000000000000002
    vertex 37.30593704496906 6.0 1.5126064510410626
  endloop
endfacet
facet normal -0.0 1.0 -0.0
  outer loop
    vertex 56.0 6.0 2.9999999999999996
    vertex 37.697515357842846 6.0 1.513060968493928
    vertex 38.07563332548919 6.0 1.6148479236609983
  endloop
endfacet
facet normal -0.0 1.0 -0.0
  outer loop
    vertex 56.0 6.0 2.9999999999999996
    vertex 38.07563332548919 6.0 1.6148479236609983
    vertex 38.41452283328252 6.0 1.8110307037585345
  endloop
endfacet
facet normal -0.0 1.0 -0.0
  outer loop
    vertex 56.0 6.0 2.9999999999999996
    vertex 38.41452283328252 6.0 1.8110307037585345
    vertex 38.69108912130807 6.0 2.0882397765302625
  endloop
endfacet
facet normal -0.0 1.0 -0.0
  outer loop
    vertex 56.0 6.0 2.9999999999999996
    vertex 38.69108912130807 6.0 2.0882397765302625
    vertex 38.886484654084306 6.0 2.4275838017764415
  endloop
endfacet
facet normal -0.0 1.0 -0.0
  outer loop
    vertex 56.0 6.0 2.9999999999999996
    vertex 38.886484654084306 6.0 2.4275838017764415
    vertex 38.987393548958934 6.0 2.8059370449690624
  endloop
endfacet
facet normal -0.0 1.0 -0.0
  outer loop
    vertex 56.0 6.0 2.9999999999999996
    vertex 38.987393548958934 6.0 2.8059370449690624
    vertex 38.98693903150607 6.0 3.1975153578428452
  endloop
endfacet
facet normal -0.0 1.0 -0.0
  outer loop
    vertex 56.0 6.0 2.9999999999999996
    vertex 38.98693903150607 6.0 3.1975153578428452
    vertex 56.0 6.0 7.999999999999999
  endloop
endfacet
facet normal -0.0 1.0 -0.0
  outer loop
    vertex 56.0 6.0 7.999999999999999
    vertex 38.98693903150607 6.0 3.1975153578428452
    vertex 38.885152076339004 6.0 3.575633325489199
  endloop
endfacet
facet normal -0.0 1.0 -0.0
  outer loop
    vertex 56.0 6.0 7.999999999999999
    vertex 38.885152076339004 6.0 3.575633325489199
    vertex 38.68896929624147 6.0 3.914522833282513
  endloop
endfacet
facet normal -0.0 1.0 -0.0
  outer loop
    vertex 56.0 6.0 7.999999999999999
    vertex 38.68896929624147 6.0 3.914522833282513
    vertex 38.411760223469734 6.0 4.191089121308064
  endloop
endfacet
facet normal -0.0 1.0 -0.0
  outer loop
    vertex 56.0 6.0 7.999999999999999
    vertex 38.411760223469734 6.0 4.191089121308064
    vertex 38.07241619822356 6.0 4.3864846540843105
  endloop
endfacet
facet normal -0.0 1.0 -0.0
  outer loop
    vertex 56.0 6.0 7.999999999999999
    vertex 38.07241619822356 6.0 4.3864846540843105
    vertex 37.69406295503094 6.0 4.487393548958937
  endloop
endfacet
facet normal -0.0 1.0 -0.0
  outer loop
    vertex 56.0 6.0 7.999999999999999
    vertex 37.69406295503094 6.0 4.487393548958937
    vertex 25.999999999999996 6.0 7.999999999999999
  endloop
endfacet
facet normal -1.0 0.0 0.0
  outer loop
    vertex 79.5 9.0 2.9999999999999996
    vertex 79.5 6.0 0.9999999999999999
    vertex 79.5 6.0 3.0
  endloop
endfacet
facet normal -1.0 0.0 0.0
  outer loop
    vertex 79.5 3.9999999999999996 7.999999999999999
    vertex 79.5 0.0 0.0
    vertex 79.5 0.0 7.999999999999999
  endloop
endfacet
facet normal -1.0 0.0 0.0
  outer loop
    vertex 79.5 0.0 0.0
    vertex 79.5 3.9999999999999996 7.999999999999999
    vertex 79.5 0.0 -0.9999999999999999
  endloop
endfacet
facet normal -1.0 0.0 0.0
  outer loop
    vertex 79.5 0.0 -0.9999999999999999
    vertex 79.5 3.9999999999999996 7.999999999999999
    vertex 79.5 3.9999999999999996 0.9999999999999999
  endloop
endfacet
facet normal -1.0 0.0 0.0
  outer loop
    vertex 79.5 0.0 -0.9999999999999999
    vertex 79.5 3.9999999999999996 0.9999999999999999
    vertex 79.5 9.0 -0.9999999999999999
  endloop
endfacet
facet normal -1.0 0.0 0.0
  outer loop
    vertex 79.5 9.0 -0.9999999999999999
    vertex 79.5 3.9999999999999996 0.9999999999999999
    vertex 79.5 6.0 0.9999999999999999
  endloop
endfacet
facet normal -1.0 0.0 0.0
  outer loop
    vertex 79.5 9.0 -0.9999999999999999
    vertex 79.5 6.0 0.9999999999999999
    vertex 79.5 9.0 2.9999999999999996
  endloop
endfacet
facet normal -1.5833024774720806e-18 8.177483131212127e-17 -1.0
  outer loop
    vertex 25.999999999999996 6.0 1.0000000000000002
    vertex 0.0 3.9999999999999996 0.9999999999999999
    vertex 0.0 6.0 0.9999999999999999
  endloop
endfacet
facet normal -1.5833024774720806e-18 8.177483131212127e-17 -1.0
  outer loop
    vertex 0.0 3.9999999999999996 0.9999999999999999
    vertex 25.999999999999996 6.0 1.0000000000000002
    vertex 4.000000000000002 3.9999999999999996 0.9999999999999998
  endloop
endfacet
facet normal -1.5833024774720806e-18 8.177483131212127e-17 -1.0
  outer loop
    vertex 4.000000000000002 3.9999999999999996 0.9999999999999998
    vertex 25.999999999999996 6.0 1.0000000000000002
    vertex 4.000000000000002 2.0000000000000004 0.9999999999999998
  endloop
endfacet
facet normal -1.5833024774720806e-18 8.177483131212127e-17 -1.0
  outer loop
    vertex 4.000000000000002 2.0000000000000004 0.9999999999999998
    vertex 25.999999999999996 6.0 1.0000000000000002
    vertex 25.999999999999996 2.0000000000000004 0.9999999999999996
  endloop
endfacet
facet normal -1.5833024774720806e-18 8.177483131212127e-17 -1.0
  outer loop
    vertex 25.999999999999996 2.0000000000000004 0.9999999999999996
    vertex 25.999999999999996 6.0 1.0000000000000002
    vertex 25.999999999999996 3.9999999999999996 0.9999999999999996
  endloop
endfacet
facet normal -1.5833024774720806e-18 8.177483131212127e-17 -1.0
  outer loop
    vertex 56.0 6.0 0.9999999999999996
    vertex 25.999999999999996 3.9999999999999996 0.9999999999999996
    vertex 25.999999999999996 6.0 1.0000000000000002
  endloop
endfacet
facet normal -1.5833024774720806e-18 8.177483131212127e-17 -1.0
  outer loop
    vertex 25.999999999999996 3.9999999999999996 0.9999999999999996
    vertex 56.0 6.0 0.9999999999999996
    vertex 57.50000000000001 3.9999999999999996 0.9999999999999996
  endloop
endfacet
facet normal -1.5833024774720806e-18 8.177483131212127e-17 -1.0
  outer loop
    vertex 57.50000000000001 3.9999999999999996 0.9999999999999996
    vertex 56.0 6.0 0.9999999999999996
    vertex 79.5 6.0 0.9999999999999999
  endloop
endfacet
facet normal -1.5833024774720806e-18 8.177483131212127e-17 -1.0
  outer loop
    vertex 57.50000000000001 3.9999999999999996 0.9999999999999996
    vertex 79.5 6.0 0.9999999999999999
    vertex 57.50000000000001 2.0000000000000013 0.9999999999999996
  endloop
endfacet
facet normal -1.5833024774720806e-18 8.177483131212127e-17 -1.0
  outer loop
    vertex 57.50000000000001 2.0000000000000013 0.9999999999999996
    vertex 79.5 6.0 0.9999999999999999
    vertex 77.5 3.9999999999999996 0.9999999999999996
  endloop
endfacet
facet normal -1.5833024774720806e-18 8.177483131212127e-17 -1.0
  outer loop
    vertex 77.5 3.9999999999999996 0.9999999999999996
    vertex 79.5 6.0 0.9999999999999999
    vertex 79.5 3.9999999999999996 0.9999999999999999
  endloop
endfacet
facet normal -1.5833024774720806e-18 8.177483131212127e-17 -1.0
  outer loop
    vertex 77.5 2.0000000000000013 0.9999999999999996
    vertex 57.50000000000001 2.0000000000000013 0.9999999999999996
    vertex 77.5 3.9999999999999996 0.9999999999999996
  endloop
endfacet
facet normal 1.0 1.012175130751598e-18 4.0884205213714766e-19
  outer loop
    vertex 0.0 0.0 -0.9999999999999999
    vertex 0.0 3.9999999999999996 0.9999999999999999
    vertex 0.0 0.0 7.999999999999999
  endloop
endfacet
facet normal 1.0 1.012175130751598e-18 4.0884205213714766e-19
  outer loop
    vertex 0.0 3.9999999999999996 0.9999999999999999
    vertex 0.0 0.0 -0.9999999999999999
    vertex 0.0 9.0 -0.9999999999999999
  endloop
endfacet
facet normal 1.0 1.012175130751598e-18 4.0884205213714766e-19
  outer loop
    vertex 0.0 3.9999999999999996 0.9999999999999999
    vertex 0.0 9.0 -0.9999999999999999
    vertex 0.0 6.0 0.9999999999999999
  endloop
endfacet
facet normal 1.0 1.012175130751598e-18 4.0884205213714766e-19
  outer loop
    vertex 0.0 6.0 0.9999999999999999
    vertex 0.0 9.0 -0.9999999999999999
    vertex -1.3557531166095657e-17 6.0 3.0
  endloop
endfacet
facet normal 1.0 1.012175130751598e-18 4.0884205213714766e-19
  outer loop
    vertex -1.3557531166095657e-17 6.0 3.0
    vertex 0.0 9.0 -0.9999999999999999
    vertex -1.3557531166095657e-17 9.0 3.0
  endloop
endfacet
facet normal 1.0 1.012175130751598e-18 4.0884205213714766e-19
  outer loop
    vertex 0.0 3.9999999999999996 7.999999999999999
    vertex 0.0 0.0 7.999999999999999
    vertex 0.0 3.9999999999999996 0.9999999999999999
  endloop
endfacet
facet normal 0.8131662611717182 0.0 -0.5820314696749732
  outer loop
    vertex 38.80301307113514 3.9999999999999982 2.067356026668281
    vertex 39.0 3.0 2.436379698253341
    vertex 38.80301307113514 3.0 2.067356026668281
  endloop
endfacet
facet normal 0.9360991219335759 0.0 -0.3517363130459924
  outer loop
    vertex 39.0 3.0 2.436379698253341
    vertex 38.80301307113514 3.9999999999999982 2.067356026668281
    vertex 39.0 3.9999999999999982 2.436379698253341
  endloop
endfacet
facet normal 0.6348174635317915 0.0 -0.7726621434980899
  outer loop
    vertex 38.51722795480333 3.9999999999999982 1.7618905005987406
    vertex 38.80301307113514 3.0 2.067356026668281
    vertex 38.51722795480333 3.0 1.7618905005987406
  endloop
endfacet
facet normal 0.8131662611717182 0.0 -0.5820314696749732
  outer loop
    vertex 38.80301307113514 3.0 2.067356026668281
    vertex 38.51722795480333 3.9999999999999982 1.7618905005987406
    vertex 38.80301307113514 3.9999999999999982 2.067356026668281
  endloop
endfacet
facet normal 0.6348174635317915 0.0 -0.7726621434980899
  outer loop
    vertex 38.51722795480333 3.9999999999999982 1.7618905005987406
    vertex 38.16212043440035 3.0 1.5408000908407056
    vertex 38.16212043440035 3.9999999999999982 1.5408000908407056
  endloop
endfacet
facet normal 0.4132069048376302 0.0 -0.9106371691263792
  outer loop
    vertex 38.16212043440035 3.0 1.5408000908407056
    vertex 38.51722795480333 3.9999999999999982 1.7618905005987406
    vertex 38.51722795480333 3.0 1.7618905005987406
  endloop
endfacet
facet normal 0.4132069048376302 0.0 -0.9106371691263792
  outer loop
    vertex 38.16212043440035 3.9999999999999982 1.5408000908407056
    vertex 37.76189050059874 3.0 1.4191517434500096
    vertex 37.76189050059874 3.9999999999999982 1.4191517434500096
  endloop
endfacet
facet normal 0.16343697843548377 0.0 -0.9865537765777795
  outer loop
    vertex 37.76189050059874 3.0 1.4191517434500096
    vertex 38.16212043440035 3.9999999999999982 1.5408000908407056
    vertex 38.16212043440035 3.0 1.5408000908407056
  endloop
endfacet
facet normal 0.16343697843548377 0.0 -0.9865537765777795
  outer loop
    vertex 37.76189050059874 3.9999999999999982 1.4191517434500096
    vertex 37.343813161975845 3.0 1.40523559226793
    vertex 37.343813161975845 3.9999999999999982 1.40523559226793
  endloop
endfacet
facet normal -0.09747090795466215 0.0 -0.9952383745126059
  outer loop
    vertex 37.343813161975845 3.0 1.40523559226793
    vertex 37.76189050059874 3.9999999999999982 1.4191517434500096
    vertex 37.76189050059874 3.0 1.4191517434500096
  endloop
endfacet
facet normal -0.09747090795466215 0.0 -0.9952383745126059
  outer loop
    vertex 37.343813161975845 3.9999999999999982 1.40523559226793
    vertex 36.93637969825334 3.0 1.4999999999999971
    vertex 36.93637969825334 3.9999999999999982 1.4999999999999971
  endloop
endfacet
facet normal -0.3517363130459896 0.0 -0.9360991219335768
  outer loop
    vertex 36.93637969825334 3.0 1.4999999999999971
    vertex 37.343813161975845 3.9999999999999982 1.40523559226793
    vertex 37.343813161975845 3.0 1.40523559226793
  endloop
endfacet
facet normal -0.3517363130459896 0.0 -0.9360991219335768
  outer loop
    vertex 36.93637969825334 3.9999999999999982 1.4999999999999971
    vertex 36.56735602666828 3.0 1.69698692886486
    vertex 36.56735602666828 3.9999999999999982 1.69698692886486
  endloop
endfacet
facet normal -0.5820314696749727 0.0 -0.8131662611717185
  outer loop
    vertex 36.56735602666828 3.0 1.69698692886486
    vertex 36.93637969825334 3.9999999999999982 1.4999999999999971
    vertex 36.93637969825334 3.0 1.4999999999999971
  endloop
endfacet
facet normal -0.5820314696749727 0.0 -0.8131662611717185
  outer loop
    vertex 36.56735602666828 3.9999999999999982 1.69698692886486
    vertex 36.26189050059874 3.0 1.9827720451966695
    vertex 36.26189050059874 3.9999999999999982 1.9827720451966695
  endloop
endfacet
facet normal -0.7726621434980918 0.0 -0.6348174635317889
  outer loop
    vertex 36.26189050059874 3.0 1.9827720451966695
    vertex 36.56735602666828 3.9999999999999982 1.69698692886486
    vertex 36.56735602666828 3.0 1.69698692886486
  endloop
endfacet
facet normal -0.9106371691263793 0.0 -0.41320690483763006
  outer loop
    vertex 36.040800090840705 3.9999999999999982 2.3378795655996476
    vertex 36.26189050059874 3.0 1.9827720451966695
    vertex 36.040800090840705 3.0 2.3378795655996476
  endloop
endfacet
facet normal -0.7726621434980918 0.0 -0.6348174635317889
  outer loop
    vertex 36.26189050059874 3.0 1.9827720451966695
    vertex 36.040800090840705 3.9999999999999982 2.3378795655996476
    vertex 36.26189050059874 3.9999999999999982 1.9827720451966695
  endloop
endfacet
facet normal -0.9865537765777787 0.0 -0.16343697843548846
  outer loop
    vertex 35.91915174345001 3.9999999999999982 2.7381094994012565
    vertex 36.040800090840705 3.0 2.3378795655996476
    vertex 35.91915174345001 3.0 2.7381094994012565
  endloop
endfacet
facet normal -0.9106371691263793 0.0 -0.41320690483763006
  outer loop
    vertex 36.040800090840705 3.0 2.3378795655996476
    vertex 35.91915174345001 3.9999999999999982 2.7381094994012565
    vertex 36.040800090840705 3.9999999999999982 2.3378795655996476
  endloop
endfacet
facet normal -0.9952383745126058 0.0 0.09747090795466193
  outer loop
    vertex 35.90523559226793 3.9999999999999982 3.156186838024154
    vertex 35.91915174345001 3.0 2.7381094994012565
    vertex 35.90523559226793 3.0 3.156186838024154
  endloop
endfacet
facet normal -0.9865537765777787 0.0 -0.16343697843548846
  outer loop
    vertex 35.91915174345001 3.0 2.7381094994012565
    vertex 35.90523559226793 3.9999999999999982 3.156186838024154
    vertex 35.91915174345001 3.9999999999999982 2.7381094994012565
  endloop
endfacet
facet normal -0.9360991219335757 0.0 0.35173631304599295
  outer loop
    vertex 35.99999999999999 3.9999999999999982 3.5636203017466586
    vertex 35.90523559226793 3.0 3.156186838024154
    vertex 35.99999999999999 3.0 3.5636203017466586
  endloop
endfacet
facet normal -0.9952383745126058 0.0 0.09747090795466193
  outer loop
    vertex 35.90523559226793 3.0 3.156186838024154
    vertex 35.99999999999999 3.9999999999999982 3.5636203017466586
    vertex 35.90523559226793 3.9999999999999982 3.156186838024154
  endloop
endfacet
facet normal -0.813166261171718 0.0 0.5820314696749732
  outer loop
    vertex 36.19698692886486 3.9999999999999982 3.9326439733317176
    vertex 35.99999999999999 3.0 3.5636203017466586
    vertex 36.19698692886486 3.0 3.9326439733317176
  endloop
endfacet
facet normal -0.9360991219335757 0.0 0.35173631304599295
  outer loop
    vertex 35.99999999999999 3.0 3.5636203017466586
    vertex 36.19698692886486 3.9999999999999982 3.9326439733317176
    vertex 35.99999999999999 3.9999999999999982 3.5636203017466586
  endloop
endfacet
facet normal -0.6348174635317917 0.0 0.7726621434980896
  outer loop
    vertex 36.48277204519667 3.9999999999999982 4.238109499401259
    vertex 36.19698692886486 3.0 3.9326439733317176
    vertex 36.48277204519667 3.0 4.238109499401259
  endloop
endfacet
facet normal -0.813166261171718 0.0 0.5820314696749732
  outer loop
    vertex 36.19698692886486 3.0 3.9326439733317176
    vertex 36.48277204519667 3.9999999999999982 4.238109499401259
    vertex 36.19698692886486 3.9999999999999982 3.9326439733317176
  endloop
endfacet
facet normal -0.41320690483762984 0.0 0.9106371691263792
  outer loop
    vertex 36.83787956559964 3.0 4.4591999091592935
    vertex 36.48277204519667 3.9999999999999982 4.238109499401259
    vertex 36.48277204519667 3.0 4.238109499401259
  endloop
endfacet
facet normal -0.6348174635317917 0.0 0.7726621434980896
  outer loop
    vertex 36.48277204519667 3.9999999999999982 4.238109499401259
    vertex 36.83787956559964 3.0 4.4591999091592935
    vertex 36.83787956559964 3.9999999999999982 4.4591999091592935
  endloop
endfacet
facet normal -0.16343697843548385 0.0 0.9865537765777795
  outer loop
    vertex 37.238109499401254 3.0 4.580848256549989
    vertex 36.83787956559964 3.9999999999999982 4.4591999091592935
    vertex 36.83787956559964 3.0 4.4591999091592935
  endloop
endfacet
facet normal -0.41320690483762984 0.0 0.9106371691263792
  outer loop
    vertex 36.83787956559964 3.9999999999999982 4.4591999091592935
    vertex 37.238109499401254 3.0 4.580848256549989
    vertex 37.238109499401254 3.9999999999999982 4.580848256549989
  endloop
endfacet
facet normal 0.0974709079546607 0.0 0.995238374512606
  outer loop
    vertex 37.656186838024155 3.0 4.594764407732069
    vertex 37.238109499401254 3.9999999999999982 4.580848256549989
    vertex 37.238109499401254 3.0 4.580848256549989
  endloop
endfacet
facet normal -0.16343697843548385 0.0 0.9865537765777795
  outer loop
    vertex 37.238109499401254 3.9999999999999982 4.580848256549989
    vertex 37.656186838024155 3.0 4.594764407732069
    vertex 37.656186838024155 3.9999999999999982 4.594764407732069
  endloop
endfacet
facet normal 0.35173631304598846 0.0 0.9360991219335772
  outer loop
    vertex 38.06362030174666 3.0 4.500000000000003
    vertex 37.656186838024155 3.9999999999999982 4.594764407732069
    vertex 37.656186838024155 3.0 4.594764407732069
  endloop
endfacet
facet normal 0.0974709079546607 0.0 0.995238374512606
  outer loop
    vertex 37.656186838024155 3.9999999999999982 4.594764407732069
    vertex 38.06362030174666 3.0 4.500000000000003
    vertex 38.06362030174666 3.9999999999999982 4.500000000000003
  endloop
endfacet
facet normal 0.5820314696749723 0.0 0.8131662611717186
  outer loop
    vertex 38.432643973331714 3.0 4.30301307113514
    vertex 38.06362030174666 3.9999999999999982 4.500000000000003
    vertex 38.06362030174666 3.0 4.500000000000003
  endloop
endfacet
facet normal 0.35173631304598846 0.0 0.9360991219335772
  outer loop
    vertex 38.06362030174666 3.9999999999999982 4.500000000000003
    vertex 38.432643973331714 3.0 4.30301307113514
    vertex 38.432643973331714 3.9999999999999982 4.30301307113514
  endloop
endfacet
facet normal 0.7726621434980918 0.0 0.6348174635317889
  outer loop
    vertex 38.73810949940126 3.0 4.017227954803331
    vertex 38.432643973331714 3.9999999999999982 4.30301307113514
    vertex 38.432643973331714 3.0 4.30301307113514
  endloop
endfacet
facet normal 0.5820314696749723 0.0 0.8131662611717186
  outer loop
    vertex 38.432643973331714 3.9999999999999982 4.30301307113514
    vertex 38.73810949940126 3.0 4.017227954803331
    vertex 38.73810949940126 3.9999999999999982 4.017227954803331
  endloop
endfacet
facet normal 0.9106371691263793 0.0 0.41320690483763006
  outer loop
    vertex 38.959199909159295 3.9999999999999982 3.6621204344003524
    vertex 38.73810949940126 3.0 4.017227954803331
    vertex 38.959199909159295 3.0 3.6621204344003524
  endloop
endfacet
facet normal 0.7726621434980918 0.0 0.6348174635317889
  outer loop
    vertex 38.73810949940126 3.0 4.017227954803331
    vertex 38.959199909159295 3.9999999999999982 3.6621204344003524
    vertex 38.73810949940126 3.9999999999999982 4.017227954803331
  endloop
endfacet
facet normal 0.9865537765777787 0.0 0.16343697843548846
  outer loop
    vertex 39.08084825654999 3.9999999999999982 3.261890500598744
    vertex 38.959199909159295 3.0 3.6621204344003524
    vertex 39.08084825654999 3.0 3.261890500598744
  endloop
endfacet
facet normal 0.9106371691263793 0.0 0.41320690483763006
  outer loop
    vertex 38.959199909159295 3.0 3.6621204344003524
    vertex 39.08084825654999 3.9999999999999982 3.261890500598744
    vertex 38.959199909159295 3.9999999999999982 3.6621204344003524
  endloop
endfacet
facet normal 0.9952383745126059 0.0 -0.09747090795466178
  outer loop
    vertex 39.09476440773207 3.9999999999999982 2.843813161975846
    vertex 39.08084825654999 3.0 3.261890500598744
    vertex 39.09476440773207 3.0 2.843813161975846
  endloop
endfacet
facet normal 0.9865537765777787 0.0 0.16343697843548846
  outer loop
    vertex 39.08084825654999 3.0 3.261890500598744
    vertex 39.09476440773207 3.9999999999999982 2.843813161975846
    vertex 39.08084825654999 3.9999999999999982 3.261890500598744
  endloop
endfacet
facet normal 0.9360991219335759 0.0 -0.3517363130459924
  outer loop
    vertex 39.0 3.9999999999999982 2.436379698253341
    vertex 39.09476440773207 3.0 2.843813161975846
    vertex 39.0 3.0 2.436379698253341
  endloop
endfacet
facet normal 0.9952383745126059 0.0 -0.09747090795466178
  outer loop
    vertex 39.09476440773207 3.0 2.843813161975846
    vertex 39.0 3.9999999999999982 2.436379698253341
    vertex 39.09476440773207 3.9999999999999982 2.843813161975846
  endloop
endfacet
facet normal 0.0 1.0 0.0
  outer loop
    vertex 35.60949619462735 3.0 1.3641530139186262
    vertex 36.93637969825334 3.0 1.4999999999999971
    vertex 37.343813161975845 3.0 1.40523559226793
  endloop
endfacet
facet normal 0.0 1.0 0.0
  outer loop
    vertex 36.93637969825334 3.0 1.4999999999999971
    vertex 35.60949619462735 3.0 1.3641530139186262
    vertex 35.25052519482137 3.0 1.9091915379560984
  endloop
endfacet
facet normal 0.0 1.0 0.0
  outer loop
    vertex 36.93637969825334 3.0 1.4999999999999971
    vertex 35.25052519482137 3.0 1.9091915379560984
    vertex 36.56735602666828 3.0 1.69698692886486
  endloop
endfacet
facet normal 0.0 1.0 0.0
  outer loop
    vertex 36.56735602666828 3.0 1.69698692886486
    vertex 35.25052519482137 3.0 1.9091915379560984
    vertex 36.26189050059874 3.0 1.9827720451966695
  endloop
endfacet
facet normal 0.0 1.0 0.0
  outer loop
    vertex 36.26189050059874 3.0 1.9827720451966695
    vertex 35.25052519482137 3.0 1.9091915379560984
    vertex 35.04485218555544 3.0 2.5285668560356487
  endloop
endfacet
facet normal 0.0 1.0 0.0
  outer loop
    vertex 36.26189050059874 3.0 1.9827720451966695
    vertex 35.04485218555544 3.0 2.5285668560356487
    vertex 36.040800090840705 3.0 2.3378795655996476
  endloop
endfacet
facet normal 0.0 1.0 0.0
  outer loop
    vertex 36.040800090840705 3.0 2.3378795655996476
    vertex 35.04485218555544 3.0 2.5285668560356487
    vertex 35.91915174345001 3.0 2.7381094994012565
  endloop
endfacet
facet normal 0.0 1.0 0.0
  outer loop
    vertex 35.91915174345001 3.0 2.7381094994012565
    vertex 35.04485218555544 3.0 2.5285668560356487
    vertex 35.00649344252031 3.0 3.1800695637962613
  endloop
endfacet
facet normal 0.0 1.0 0.0
  outer loop
    vertex 35.91915174345001 3.0 2.7381094994012565
    vertex 35.00649344252031 3.0 3.1800695637962613
    vertex 35.90523559226793 3.0 3.156186838024154
  endloop
endfacet
facet normal 0.0 1.0 0.0
  outer loop
    vertex 35.90523559226793 3.0 3.156186838024154
    vertex 35.00649344252031 3.0 3.1800695637962613
    vertex 35.99999999999999 3.0 3.5636203017466586
  endloop
endfacet
facet normal 0.0 1.0 0.0
  outer loop
    vertex 35.99999999999999 3.0 3.5636203017466586
    vertex 35.00649344252031 3.0 3.1800695637962613
    vertex 35.13806305066299 3.0 3.819300828363183
  endloop
endfacet
facet normal 0.0 1.0 0.0
  outer loop
    vertex 35.99999999999999 3.0 3.5636203017466586
    vertex 35.13806305066299 3.0 3.819300828363183
    vertex 36.19698692886486 3.0 3.9326439733317176
  endloop
endfacet
facet normal 0.0 1.0 0.0
  outer loop
    vertex 36.19698692886486 3.0 3.9326439733317176
    vertex 35.13806305066299 3.0 3.819300828363183
    vertex 35.43059475861763 3.0 4.40269809543579
  endloop
endfacet
facet normal 0.0 1.0 0.0
  outer loop
    vertex 36.19698692886486 3.0 3.9326439733317176
    vertex 35.43059475861763 3.0 4.40269809543579
    vertex 36.48277204519667 3.0 4.238109499401259
  endloop
endfacet
facet normal 0.0 1.0 0.0
  outer loop
    vertex 36.48277204519667 3.0 4.238109499401259
    vertex 35.43059475861763 3.0 4.40269809543579
    vertex 36.83787956559964 3.0 4.4591999091592935
  endloop
endfacet
facet normal 0.0 1.0 0.0
  outer loop
    vertex 36.83787956559964 3.0 4.4591999091592935
    vertex 35.43059475861763 3.0 4.40269809543579
    vertex 35.864153013918624 3.0 4.890503805372653
  endloop
endfacet
facet normal 0.0 1.0 0.0
  outer loop
    vertex 36.83787956559964 3.0 4.4591999091592935
    vertex 35.864153013918624 3.0 4.890503805372653
    vertex 37.238109499401254 3.0 4.580848256549989
  endloop
endfacet
facet normal 0.0 1.0 0.0
  outer loop
    vertex 37.238109499401254 3.0 4.580848256549989
    vertex 35.864153013918624 3.0 4.890503805372653
    vertex 37.656186838024155 3.0 4.594764407732069
  endloop
endfacet
facet normal 0.0 1.0 0.0
  outer loop
    vertex 37.656186838024155 3.0 4.594764407732069
    vertex 35.864153013918624 3.0 4.890503805372653
    vertex 39.39050380537265 3.0 4.635846986081374
  endloop
endfacet
facet normal 0.0 1.0 0.0
  outer loop
    vertex 39.39050380537265 3.0 4.635846986081374
    vertex 35.864153013918624 3.0 4.890503805372653
    vertex 38.90269809543579 3.0 5.0694052413823645
  endloop
endfacet
facet normal 0.0 1.0 0.0
  outer loop
    vertex 38.90269809543579 3.0 5.0694052413823645
    vertex 35.864153013918624 3.0 4.890503805372653
    vertex 36.4091915379561 3.0 5.249474805178625
  endloop
endfacet
facet normal 0.0 1.0 0.0
  outer loop
    vertex 38.90269809543579 3.0 5.0694052413823645
    vertex 36.4091915379561 3.0 5.249474805178625
    vertex 38.31930082836318 3.0 5.3619369493370055
  endloop
endfacet
facet normal 0.0 1.0 0.0
  outer loop
    vertex 38.31930082836318 3.0 5.3619369493370055
    vertex 36.4091915379561 3.0 5.249474805178625
    vertex 37.028566856035646 3.0 5.455147814444557
  endloop
endfacet
facet normal 0.0 1.0 0.0
  outer loop
    vertex 38.31930082836318 3.0 5.3619369493370055
    vertex 37.028566856035646 3.0 5.455147814444557
    vertex 37.68006956379626 3.0 5.493506557479692
  endloop
endfacet
facet normal 0.0 1.0 0.0
  outer loop
    vertex 36.68069917163681 3.0 0.6380630506629938
    vertex 37.97143314396435 3.0 0.5448521855554427
    vertex 37.31993043620374 3.0 0.5064934425203083
  endloop
endfacet
facet normal 0.0 1.0 0.0
  outer loop
    vertex 37.97143314396435 3.0 0.5448521855554427
    vertex 36.68069917163681 3.0 0.6380630506629938
    vertex 38.5908084620439 3.0 0.7505251948213743
  endloop
endfacet
facet normal 0.0 1.0 0.0
  outer loop
    vertex 38.5908084620439 3.0 0.7505251948213743
    vertex 36.68069917163681 3.0 0.6380630506629938
    vertex 36.09730190456421 3.0 0.9305947586176354
  endloop
endfacet
facet normal 0.0 1.0 0.0
  outer loop
    vertex 38.5908084620439 3.0 0.7505251948213743
    vertex 36.09730190456421 3.0 0.9305947586176354
    vertex 39.13584698608137 3.0 1.109496194627347
  endloop
endfacet
facet normal 0.0 1.0 0.0
  outer loop
    vertex 39.13584698608137 3.0 1.109496194627347
    vertex 36.09730190456421 3.0 0.9305947586176354
    vertex 35.60949619462735 3.0 1.3641530139186262
  endloop
endfacet
facet normal 0.0 1.0 0.0
  outer loop
    vertex 39.13584698608137 3.0 1.109496194627347
    vertex 35.60949619462735 3.0 1.3641530139186262
    vertex 37.343813161975845 3.0 1.40523559226793
  endloop
endfacet
facet normal 0.0 1.0 0.0
  outer loop
    vertex 39.13584698608137 3.0 1.109496194627347
    vertex 37.343813161975845 3.0 1.40523559226793
    vertex 37.76189050059874 3.0 1.4191517434500096
  endloop
endfacet
facet normal 0.0 1.0 0.0
  outer loop
    vertex 39.13584698608137 3.0 1.109496194627347
    vertex 37.76189050059874 3.0 1.4191517434500096
    vertex 39.56940524138236 3.0 1.5973019045642096
  endloop
endfacet
facet normal 0.0 1.0 0.0
  outer loop
    vertex 39.56940524138236 3.0 1.5973019045642096
    vertex 37.76189050059874 3.0 1.4191517434500096
    vertex 38.16212043440035 3.0 1.5408000908407056
  endloop
endfacet
facet normal 0.0 1.0 0.0
  outer loop
    vertex 39.56940524138236 3.0 1.5973019045642096
    vertex 38.16212043440035 3.0 1.5408000908407056
    vertex 38.51722795480333 3.0 1.7618905005987406
  endloop
endfacet
facet normal 0.0 1.0 0.0
  outer loop
    vertex 39.56940524138236 3.0 1.5973019045642096
    vertex 38.51722795480333 3.0 1.7618905005987406
    vertex 39.86193694933701 3.0 2.1806991716368174
  endloop
endfacet
facet normal 0.0 1.0 0.0
  outer loop
    vertex 39.86193694933701 3.0 2.1806991716368174
    vertex 38.51722795480333 3.0 1.7618905005987406
    vertex 38.80301307113514 3.0 2.067356026668281
  endloop
endfacet
facet normal 0.0 1.0 0.0
  outer loop
    vertex 39.86193694933701 3.0 2.1806991716368174
    vertex 38.80301307113514 3.0 2.067356026668281
    vertex 39.0 3.0 2.436379698253341
  endloop
endfacet
facet normal 0.0 1.0 0.0
  outer loop
    vertex 39.86193694933701 3.0 2.1806991716368174
    vertex 39.0 3.0 2.436379698253341
    vertex 39.99350655747969 3.0 2.819930436203739
  endloop
endfacet
facet normal 0.0 1.0 0.0
  outer loop
    vertex 39.99350655747969 3.0 2.819930436203739
    vertex 39.0 3.0 2.436379698253341
    vertex 39.09476440773207 3.0 2.843813161975846
  endloop
endfacet
facet normal 0.0 1.0 0.0
  outer loop
    vertex 39.99350655747969 3.0 2.819930436203739
    vertex 39.09476440773207 3.0 2.843813161975846
    vertex 39.95514781444456 3.0 3.471433143964352
  endloop
endfacet
facet normal 0.0 1.0 0.0
  outer loop
    vertex 39.95514781444456 3.0 3.471433143964352
    vertex 39.09476440773207 3.0 2.843813161975846
    vertex 39.08084825654999 3.0 3.261890500598744
  endloop
endfacet
facet normal 0.0 1.0 0.0
  outer loop
    vertex 39.95514781444456 3.0 3.471433143964352
    vertex 39.08084825654999 3.0 3.261890500598744
    vertex 38.959199909159295 3.0 3.6621204344003524
  endloop
endfacet
facet normal 0.0 1.0 0.0
  outer loop
    vertex 39.95514781444456 3.0 3.471433143964352
    vertex 38.959199909159295 3.0 3.6621204344003524
    vertex 39.74947480517863 3.0 4.090808462043902
  endloop
endfacet
facet normal 0.0 1.0 0.0
  outer loop
    vertex 39.74947480517863 3.0 4.090808462043902
    vertex 38.959199909159295 3.0 3.6621204344003524
    vertex 38.73810949940126 3.0 4.017227954803331
  endloop
endfacet
facet normal 0.0 1.0 0.0
  outer loop
    vertex 39.74947480517863 3.0 4.090808462043902
    vertex 38.73810949940126 3.0 4.017227954803331
    vertex 38.432643973331714 3.0 4.30301307113514
  endloop
endfacet
facet normal 0.0 1.0 0.0
  outer loop
    vertex 39.74947480517863 3.0 4.090808462043902
    vertex 38.432643973331714 3.0 4.30301307113514
    vertex 39.39050380537265 3.0 4.635846986081374
  endloop
endfacet
facet normal 0.0 1.0 0.0
  outer loop
    vertex 39.39050380537265 3.0 4.635846986081374
    vertex 38.432643973331714 3.0 4.30301307113514
    vertex 38.06362030174666 3.0 4.500000000000003
  endloop
endfacet
facet normal 0.0 1.0 0.0
  outer loop
    vertex 39.39050380537265 3.0 4.635846986081374
    vertex 38.06362030174666 3.0 4.500000000000003
    vertex 37.656186838024155 3.0 4.594764407732069
  endloop
endfacet
facet normal -0.6543387944325493 0.0 0.756201522149062
  outer loop
    vertex 35.864153013918624 3.0 4.890503805372653
    vertex 35.43059475861763 0.0 4.40269809543579
    vertex 35.864153013918624 0.0 4.890503805372653
  endloop
endfacet
facet normal -0.8277620965529452 0.0 0.5610792381743178
  outer loop
    vertex 35.43059475861763 0.0 4.40269809543579
    vertex 35.864153013918624 3.0 4.890503805372653
    vertex 35.43059475861763 3.0 4.40269809543579
  endloop
endfacet
facet normal -0.4363233848175618 0.0 0.8997899220714498
  outer loop
    vertex 36.4091915379561 0.0 5.249474805178625
    vertex 35.864153013918624 3.0 4.890503805372653
    vertex 35.864153013918624 0.0 4.890503805372653
  endloop
endfacet
facet normal -0.6543387944325493 0.0 0.756201522149062
  outer loop
    vertex 35.864153013918624 3.0 4.890503805372653
    vertex 36.4091915379561 0.0 5.249474805178625
    vertex 36.4091915379561 3.0 5.249474805178625
  endloop
endfacet
facet normal -0.18857325758574137 0.0 0.9820591257778228
  outer loop
    vertex 37.028566856035646 0.0 5.455147814444557
    vertex 36.4091915379561 3.0 5.249474805178625
    vertex 36.4091915379561 0.0 5.249474805178625
  endloop
endfacet
facet normal -0.4363233848175618 0.0 0.8997899220714498
  outer loop
    vertex 36.4091915379561 3.0 5.249474805178625
    vertex 37.028566856035646 0.0 5.455147814444557
    vertex 37.028566856035646 3.0 5.455147814444557
  endloop
endfacet
facet normal 0.072027825518504 0.0 0.9974026229918768
  outer loop
    vertex 37.68006956379626 0.0 5.493506557479692
    vertex 37.028566856035646 3.0 5.455147814444557
    vertex 37.028566856035646 0.0 5.455147814444557
  endloop
endfacet
facet normal -0.18857325758574137 0.0 0.9820591257778228
  outer loop
    vertex 37.028566856035646 3.0 5.455147814444557
    vertex 37.68006956379626 0.0 5.493506557479692
    vertex 37.68006956379626 3.0 5.493506557479692
  endloop
endfacet
facet normal 0.3277203313452739 0.0 0.9447747797348021
  outer loop
    vertex 38.31930082836318 0.0 5.3619369493370055
    vertex 37.68006956379626 3.0 5.493506557479692
    vertex 37.68006956379626 0.0 5.493506557479692
  endloop
endfacet
facet normal 0.072027825518504 0.0 0.9974026229918768
  outer loop
    vertex 37.68006956379626 3.0 5.493506557479692
    vertex 38.31930082836318 0.0 5.3619369493370055
    vertex 38.31930082836318 3.0 5.3619369493370055
  endloop
endfacet
facet normal 0.5610792381743169 0.0 0.8277620965529456
  outer loop
    vertex 38.90269809543579 0.0 5.0694052413823645
    vertex 38.31930082836318 3.0 5.3619369493370055
    vertex 38.31930082836318 0.0 5.3619369493370055
  endloop
endfacet
facet normal 0.3277203313452739 0.0 0.9447747797348021
  outer loop
    vertex 38.31930082836318 3.0 5.3619369493370055
    vertex 38.90269809543579 0.0 5.0694052413823645
    vertex 38.90269809543579 3.0 5.0694052413823645
  endloop
endfacet
facet normal 0.7562015221490607 0.0 0.6543387944325507
  outer loop
    vertex 39.39050380537265 0.0 4.635846986081374
    vertex 38.90269809543579 3.0 5.0694052413823645
    vertex 38.90269809543579 0.0 5.0694052413823645
  endloop
endfacet
facet normal 0.5610792381743169 0.0 0.8277620965529456
  outer loop
    vertex 38.90269809543579 3.0 5.0694052413823645
    vertex 39.39050380537265 0.0 4.635846986081374
    vertex 39.39050380537265 3.0 4.635846986081374
  endloop
endfacet
facet normal 0.89978992207145 0.0 0.4363233848175616
  outer loop
    vertex 39.74947480517863 3.0 4.090808462043902
    vertex 39.39050380537265 0.0 4.635846986081374
    vertex 39.74947480517863 0.0 4.090808462043902
  endloop
endfacet
facet normal 0.7562015221490607 0.0 0.6543387944325507
  outer loop
    vertex 39.39050380537265 0.0 4.635846986081374
    vertex 39.74947480517863 3.0 4.090808462043902
    vertex 39.39050380537265 3.0 4.635846986081374
  endloop
endfacet
facet normal 0.9820591257778231 0.0 0.18857325758573992
  outer loop
    vertex 39.95514781444456 3.0 3.471433143964352
    vertex 39.74947480517863 0.0 4.090808462043902
    vertex 39.95514781444456 0.0 3.471433143964352
  endloop
endfacet
facet normal 0.89978992207145 0.0 0.4363233848175616
  outer loop
    vertex 39.74947480517863 0.0 4.090808462043902
    vertex 39.95514781444456 3.0 3.471433143964352
    vertex 39.74947480517863 3.0 4.090808462043902
  endloop
endfacet
facet normal 0.9974026229918769 0.0 -0.07202782551850435
  outer loop
    vertex 39.99350655747969 3.0 2.819930436203739
    vertex 39.95514781444456 0.0 3.471433143964352
    vertex 39.99350655747969 0.0 2.819930436203739
  endloop
endfacet
facet normal 0.9820591257778231 0.0 0.18857325758573992
  outer loop
    vertex 39.95514781444456 0.0 3.471433143964352
    vertex 39.99350655747969 3.0 2.819930436203739
    vertex 39.95514781444456 3.0 3.471433143964352
  endloop
endfacet
facet normal 0.9447747797348026 0.0 -0.3277203313452725
  outer loop
    vertex 39.86193694933701 3.0 2.1806991716368174
    vertex 39.99350655747969 0.0 2.819930436203739
    vertex 39.86193694933701 0.0 2.1806991716368174
  endloop
endfacet
facet normal 0.9974026229918769 0.0 -0.07202782551850435
  outer loop
    vertex 39.99350655747969 0.0 2.819930436203739
    vertex 39.86193694933701 3.0 2.1806991716368174
    vertex 39.99350655747969 3.0 2.819930436203739
  endloop
endfacet
facet normal 0.8277620965529452 0.0 -0.5610792381743177
  outer loop
    vertex 39.56940524138236 3.0 1.5973019045642096
    vertex 39.86193694933701 0.0 2.1806991716368174
    vertex 39.56940524138236 0.0 1.5973019045642096
  endloop
endfacet
facet normal 0.9447747797348026 0.0 -0.3277203313452725
  outer loop
    vertex 39.86193694933701 0.0 2.1806991716368174
    vertex 39.56940524138236 3.0 1.5973019045642096
    vertex 39.86193694933701 3.0 2.1806991716368174
  endloop
endfacet
facet normal 0.6543387944325495 0.0 -0.7562015221490617
  outer loop
    vertex 39.13584698608137 3.0 1.109496194627347
    vertex 39.56940524138236 0.0 1.5973019045642096
    vertex 39.13584698608137 0.0 1.109496194627347
  endloop
endfacet
facet normal 0.8277620965529452 0.0 -0.5610792381743177
  outer loop
    vertex 39.56940524138236 0.0 1.5973019045642096
    vertex 39.13584698608137 3.0 1.109496194627347
    vertex 39.56940524138236 3.0 1.5973019045642096
  endloop
endfacet
facet normal 0.6543387944325495 0.0 -0.7562015221490617
  outer loop
    vertex 39.13584698608137 3.0 1.109496194627347
    vertex 38.5908084620439 0.0 0.7505251948213743
    vertex 38.5908084620439 3.0 0.7505251948213743
  endloop
endfacet
facet normal 0.4363233848175608 0.0 -0.8997899220714505
  outer loop
    vertex 38.5908084620439 0.0 0.7505251948213743
    vertex 39.13584698608137 3.0 1.109496194627347
    vertex 39.13584698608137 0.0 1.109496194627347
  endloop
endfacet
facet normal 0.4363233848175608 0.0 -0.8997899220714505
  outer loop
    vertex 38.5908084620439 3.0 0.7505251948213743
    vertex 37.97143314396435 0.0 0.5448521855554427
    vertex 37.97143314396435 3.0 0.5448521855554427
  endloop
endfacet
facet normal 0.18857325758574034 0.0 -0.9820591257778231
  outer loop
    vertex 37.97143314396435 0.0 0.5448521855554427
    vertex 38.5908084620439 3.0 0.7505251948213743
    vertex 38.5908084620439 0.0 0.7505251948213743
  endloop
endfacet
facet normal 0.18857325758574034 0.0 -0.9820591257778231
  outer loop
    vertex 37.97143314396435 3.0 0.5448521855554427
    vertex 37.31993043620374 0.0 0.5064934425203083
    vertex 37.31993043620374 3.0 0.5064934425203083
  endloop
endfacet
facet normal -0.07202782551850373 0.0 -0.9974026229918768
  outer loop
    vertex 37.31993043620374 0.0 0.5064934425203083
    vertex 37.97143314396435 3.0 0.5448521855554427
    vertex 37.97143314396435 0.0 0.5448521855554427
  endloop
endfacet
facet normal -0.07202782551850373 0.0 -0.9974026229918768
  outer loop
    vertex 37.31993043620374 3.0 0.5064934425203083
    vertex 36.68069917163681 0.0 0.6380630506629938
    vertex 36.68069917163681 3.0 0.6380630506629938
  endloop
endfacet
facet normal -0.32772033134527434 0.0 -0.944774779734802
  outer loop
    vertex 36.68069917163681 0.0 0.6380630506629938
    vertex 37.31993043620374 3.0 0.5064934425203083
    vertex 37.31993043620374 0.0 0.5064934425203083
  endloop
endfacet
facet normal -0.32772033134527434 0.0 -0.944774779734802
  outer loop
    vertex 36.68069917163681 3.0 0.6380630506629938
    vertex 36.09730190456421 0.0 0.9305947586176354
    vertex 36.09730190456421 3.0 0.9305947586176354
  endloop
endfacet
facet normal -0.5610792381743174 0.0 -0.8277620965529453
  outer loop
    vertex 36.09730190456421 0.0 0.9305947586176354
    vertex 36.68069917163681 3.0 0.6380630506629938
    vertex 36.68069917163681 0.0 0.6380630506629938
  endloop
endfacet
facet normal -0.5610792381743174 0.0 -0.8277620965529453
  outer loop
    vertex 36.09730190456421 3.0 0.9305947586176354
    vertex 35.60949619462735 0.0 1.3641530139186262
    vertex 35.60949619462735 3.0 1.3641530139186262
  endloop
endfacet
facet normal -0.7562015221490607 0.0 -0.6543387944325507
  outer loop
    vertex 35.60949619462735 0.0 1.3641530139186262
    vertex 36.09730190456421 3.0 0.9305947586176354
    vertex 36.09730190456421 0.0 0.9305947586176354
  endloop
endfacet
facet normal -0.89978992207145 0.0 -0.4363233848175615
  outer loop
    vertex 35.25052519482137 3.0 1.9091915379560984
    vertex 35.60949619462735 0.0 1.3641530139186262
    vertex 35.25052519482137 0.0 1.9091915379560984
  endloop
endfacet
facet normal -0.7562015221490607 0.0 -0.6543387944325507
  outer loop
    vertex 35.60949619462735 0.0 1.3641530139186262
    vertex 35.25052519482137 3.0 1.9091915379560984
    vertex 35.60949619462735 3.0 1.3641530139186262
  endloop
endfacet
facet normal -0.9820591257778231 0.0 -0.18857325758573978
  outer loop
    vertex 35.04485218555544 3.0 2.5285668560356487
    vertex 35.25052519482137 0.0 1.9091915379560984
    vertex 35.04485218555544 0.0 2.5285668560356487
  endloop
endfacet
facet normal -0.89978992207145 0.0 -0.4363233848175615
  outer loop
    vertex 35.25052519482137 0.0 1.9091915379560984
    vertex 35.04485218555544 3.0 2.5285668560356487
    vertex 35.25052519482137 3.0 1.9091915379560984
  endloop
endfacet
facet normal -0.9974026229918769 0.0 0.07202782551850433
  outer loop
    vertex 35.00649344252031 3.0 3.1800695637962613
    vertex 35.04485218555544 0.0 2.5285668560356487
    vertex 35.00649344252031 0.0 3.1800695637962613
  endloop
endfacet
facet normal -0.9820591257778231 0.0 -0.18857325758573978
  outer loop
    vertex 35.04485218555544 0.0 2.5285668560356487
    vertex 35.00649344252031 3.0 3.1800695637962613
    vertex 35.04485218555544 3.0 2.5285668560356487
  endloop
endfacet
facet normal -0.9447747797348026 0.0 0.3277203313452727
  outer loop
    vertex 35.13806305066299 3.0 3.819300828363183
    vertex 35.00649344252031 0.0 3.1800695637962613
    vertex 35.13806305066299 0.0 3.819300828363183
  endloop
endfacet
facet normal -0.9974026229918769 0.0 0.07202782551850433
  outer loop
    vertex 35.00649344252031 0.0 3.1800695637962613
    vertex 35.13806305066299 3.0 3.819300828363183
    vertex 35.00649344252031 3.0 3.1800695637962613
  endloop
endfacet
facet normal -0.8277620965529452 0.0 0.5610792381743178
  outer loop
    vertex 35.43059475861763 3.0 4.40269809543579
    vertex 35.13806305066299 0.0 3.819300828363183
    vertex 35.43059475861763 0.0 4.40269809543579
  endloop
endfacet
facet normal -0.9447747797348026 0.0 0.3277203313452727
  outer loop
    vertex 35.13806305066299 0.0 3.819300828363183
    vertex 35.43059475861763 3.0 4.40269809543579
    vertex 35.13806305066299 3.0 3.819300828363183
  endloop
endfacet
facet normal 0.6096818888550062 0.0 -0.7926461974943121
  outer loop
    vertex 38.41452283328252 11.000000000000002 1.8110307037585327
    vertex 38.69108912130807 6.0 2.0882397765302625
    vertex 38.41452283328252 6.0 1.8110307037585345
  endloop
endfacet
facet normal 0.7940594142053773 0.0 -0.6078401489798227
  outer loop
    vertex 38.69108912130807 6.0 2.0882397765302625
    vertex 38.41452283328252 11.000000000000002 1.8110307037585327
    vertex 38.69108912130807 11.000000000000002 2.0882397765302607
  endloop
endfacet
facet normal 0.7940594142053773 0.0 -0.6078401489798229
  outer loop
    vertex 38.69108912130807 11.000000000000002 2.0882397765302607
    vertex 38.886484654084306 6.0 2.4275838017764415
    vertex 38.69108912130807 6.0 2.0882397765302625
  endloop
endfacet
facet normal 0.9243231027228739 0.0 -0.38161079881570426
  outer loop
    vertex 38.886484654084306 6.0 2.4275838017764415
    vertex 38.69108912130807 11.000000000000002 2.0882397765302607
    vertex 38.886484654084306 11.000000000000002 2.4275838017764397
  endloop
endfacet
facet normal 0.9243231027228739 0.0 -0.3816107988157043
  outer loop
    vertex 38.886484654084306 11.000000000000002 2.4275838017764397
    vertex 38.987393548958934 6.0 2.8059370449690624
    vertex 38.886484654084306 6.0 2.4275838017764415
  endloop
endfacet
facet normal 0.9915956993059576 0.0 -0.129375303353959
  outer loop
    vertex 38.987393548958934 6.0 2.8059370449690624
    vertex 38.886484654084306 11.000000000000002 2.4275838017764397
    vertex 38.987393548958934 11.000000000000002 2.8059370449690606
  endloop
endfacet
facet normal 0.9915956993059576 0.0 -0.12937530335395908
  outer loop
    vertex 38.987393548958934 11.000000000000002 2.8059370449690606
    vertex 38.98693903150607 6.0 3.1975153578428452
    vertex 38.987393548958934 6.0 2.8059370449690624
  endloop
endfacet
facet normal 0.9912926876707139 0.0 0.13167690522856465
  outer loop
    vertex 38.98693903150607 6.0 3.1975153578428452
    vertex 38.987393548958934 11.000000000000002 2.8059370449690606
    vertex 38.98693903150607 11.000000000000002 3.197515357842843
  endloop
endfacet
facet normal 0.9912926876707139 0.0 0.1316769052285646
  outer loop
    vertex 38.98693903150607 11.000000000000002 3.197515357842843
    vertex 38.885152076339004 6.0 3.575633325489199
    vertex 38.98693903150607 6.0 3.1975153578428452
  endloop
endfacet
facet normal 0.9234347175593335 0.0 0.3837555503261339
  outer loop
    vertex 38.885152076339004 6.0 3.575633325489199
    vertex 38.98693903150607 11.000000000000002 3.197515357842843
    vertex 38.885152076339004 11.000000000000002 3.5756333254891968
  endloop
endfacet
facet normal 0.9234347175593335 0.0 0.3837555503261339
  outer loop
    vertex 38.885152076339004 11.000000000000002 3.5756333254891968
    vertex 38.68896929624147 6.0 3.914522833282513
    vertex 38.885152076339004 6.0 3.575633325489199
  endloop
endfacet
facet normal 0.7926461974943091 0.0 0.60968188885501
  outer loop
    vertex 38.68896929624147 6.0 3.914522833282513
    vertex 38.885152076339004 11.000000000000002 3.5756333254891968
    vertex 38.68896929624147 11.000000000000002 3.9145228332825113
  endloop
endfacet
facet normal 0.7926461974943091 0.0 0.60968188885501
  outer loop
    vertex 38.68896929624147 6.0 3.914522833282513
    vertex 38.411760223469734 11.000000000000002 4.191089121308062
    vertex 38.411760223469734 6.0 4.191089121308064
  endloop
endfacet
facet normal 0.6078401489798242 0.0 0.7940594142053763
  outer loop
    vertex 38.411760223469734 11.000000000000002 4.191089121308062
    vertex 38.68896929624147 6.0 3.914522833282513
    vertex 38.68896929624147 11.000000000000002 3.9145228332825113
  endloop
endfacet
facet normal 0.6078401489798242 0.0 0.7940594142053763
  outer loop
    vertex 38.411760223469734 6.0 4.191089121308064
    vertex 38.07241619822356 11.000000000000002 4.386484654084309
    vertex 38.07241619822356 6.0 4.3864846540843105
  endloop
endfacet
facet normal 0.3816107988157052 0.0 0.9243231027228733
  outer loop
    vertex 38.07241619822356 11.000000000000002 4.386484654084309
    vertex 38.411760223469734 6.0 4.191089121308064
    vertex 38.411760223469734 11.000000000000002 4.191089121308062
  endloop
endfacet
facet normal 0.38161079881570514 0.0 0.9243231027228732
  outer loop
    vertex 38.07241619822356 6.0 4.3864846540843105
    vertex 37.69406295503094 11.000000000000002 4.487393548958935
    vertex 37.69406295503094 6.0 4.487393548958937
  endloop
endfacet
facet normal 0.12937530335395905 0.0 0.9915956993059576
  outer loop
    vertex 37.69406295503094 11.000000000000002 4.487393548958935
    vertex 38.07241619822356 6.0 4.3864846540843105
    vertex 38.07241619822356 11.000000000000002 4.386484654084309
  endloop
endfacet
facet normal 0.12937530335395903 0.0 0.9915956993059576
  outer loop
    vertex 37.69406295503094 6.0 4.487393548958937
    vertex 37.302484642157154 11.000000000000002 4.48693903150607
    vertex 37.302484642157154 6.0 4.486939031506073
  endloop
endfacet
facet normal -0.13167690522856357 0.0 0.9912926876707141
  outer loop
    vertex 37.302484642157154 11.000000000000002 4.48693903150607
    vertex 37.69406295503094 6.0 4.487393548958937
    vertex 37.69406295503094 11.000000000000002 4.487393548958935
  endloop
endfacet
facet normal -0.13167690522856357 0.0 0.9912926876707141
  outer loop
    vertex 37.302484642157154 6.0 4.486939031506073
    vertex 36.9243666745108 11.000000000000002 4.385152076339
    vertex 36.9243666745108 6.0 4.385152076339002
  endloop
endfacet
facet normal -0.38375555032613096 0.0 0.9234347175593349
  outer loop
    vertex 36.9243666745108 11.000000000000002 4.385152076339
    vertex 37.302484642157154 6.0 4.486939031506073
    vertex 37.302484642157154 11.000000000000002 4.48693903150607
  endloop
endfacet
facet normal -0.38375555032613096 0.0 0.9234347175593347
  outer loop
    vertex 36.9243666745108 6.0 4.385152076339002
    vertex 36.58547716671748 11.000000000000002 4.1889692962414635
    vertex 36.58547716671748 6.0 4.188969296241466
  endloop
endfacet
facet normal -0.609681888855006 0.0 0.7926461974943121
  outer loop
    vertex 36.58547716671748 11.000000000000002 4.1889692962414635
    vertex 36.9243666745108 6.0 4.385152076339002
    vertex 36.9243666745108 11.000000000000002 4.385152076339
  endloop
endfacet
facet normal -0.609681888855006 0.0 0.7926461974943121
  outer loop
    vertex 36.58547716671748 11.000000000000002 4.1889692962414635
    vertex 36.30891087869193 6.0 3.9117602234697384
    vertex 36.58547716671748 6.0 4.188969296241466
  endloop
endfacet
facet normal -0.7940594142053771 0.0 0.607840148979823
  outer loop
    vertex 36.30891087869193 6.0 3.9117602234697384
    vertex 36.58547716671748 11.000000000000002 4.1889692962414635
    vertex 36.30891087869193 11.000000000000002 3.911760223469736
  endloop
endfacet
facet normal -0.7940594142053771 0.0 0.607840148979823
  outer loop
    vertex 36.30891087869193 11.000000000000002 3.911760223469736
    vertex 36.11351534591569 6.0 3.5724161982235594
    vertex 36.30891087869193 6.0 3.9117602234697384
  endloop
endfacet
facet normal -0.9243231027228737 0.0 0.3816107988157043
  outer loop
    vertex 36.11351534591569 6.0 3.5724161982235594
    vertex 36.30891087869193 11.000000000000002 3.911760223469736
    vertex 36.11351534591569 11.000000000000002 3.572416198223557
  endloop
endfacet
facet normal -0.9243231027228739 0.0 0.3816107988157043
  outer loop
    vertex 36.11351534591569 11.000000000000002 3.572416198223557
    vertex 36.01260645104106 6.0 3.194062955030938
    vertex 36.11351534591569 6.0 3.5724161982235594
  endloop
endfacet
facet normal -0.9915956993059576 0.0 0.12937530335395897
  outer loop
    vertex 36.01260645104106 6.0 3.194062955030938
    vertex 36.11351534591569 11.000000000000002 3.572416198223557
    vertex 36.01260645104106 11.000000000000002 3.1940629550309363
  endloop
endfacet
facet normal -0.9915956993059576 0.0 0.12937530335395891
  outer loop
    vertex 36.01260645104106 11.000000000000002 3.1940629550309363
    vertex 36.013060968493924 6.0 2.8024846421571556
    vertex 36.01260645104106 6.0 3.194062955030938
  endloop
endfacet
facet normal -0.991292687670714 0.0 -0.1316769052285644
  outer loop
    vertex 36.013060968493924 6.0 2.8024846421571556
    vertex 36.01260645104106 11.000000000000002 3.1940629550309363
    vertex 36.013060968493924 11.000000000000002 2.802484642157154
  endloop
endfacet
facet normal -0.991292687670714 0.0 -0.13167690522856446
  outer loop
    vertex 36.013060968493924 11.000000000000002 2.802484642157154
    vertex 36.114847923660996 6.0 2.424366674510801
    vertex 36.013060968493924 6.0 2.8024846421571556
  endloop
endfacet
facet normal -0.9234347175593339 0.0 -0.3837555503261332
  outer loop
    vertex 36.114847923660996 6.0 2.424366674510801
    vertex 36.013060968493924 11.000000000000002 2.802484642157154
    vertex 36.114847923660996 11.000000000000002 2.4243666745107992
  endloop
endfacet
facet normal -0.9234347175593339 0.0 -0.38375555032613323
  outer loop
    vertex 36.114847923660996 11.000000000000002 2.4243666745107992
    vertex 36.31103070375853 6.0 2.085477166717486
    vertex 36.114847923660996 6.0 2.424366674510801
  endloop
endfacet
facet normal -0.792646197494309 0.0 -0.6096818888550101
  outer loop
    vertex 36.31103070375853 6.0 2.085477166717486
    vertex 36.114847923660996 11.000000000000002 2.4243666745107992
    vertex 36.31103070375853 11.000000000000002 2.0854771667174843
  endloop
endfacet
facet normal -0.6078401489798232 0.0 -0.7940594142053768
  outer loop
    vertex 36.588239776530266 11.000000000000002 1.8089108786919341
    vertex 36.31103070375853 6.0 2.085477166717486
    vertex 36.31103070375853 11.000000000000002 2.0854771667174843
  endloop
endfacet
facet normal -0.792646197494309 0.0 -0.6096818888550101
  outer loop
    vertex 36.31103070375853 6.0 2.085477166717486
    vertex 36.588239776530266 11.000000000000002 1.8089108786919341
    vertex 36.588239776530266 6.0 1.808910878691936
  endloop
endfacet
facet normal -0.38161079881570537 0.0 -0.9243231027228731
  outer loop
    vertex 36.92758380177644 11.000000000000002 1.6135153459156881
    vertex 36.588239776530266 6.0 1.808910878691936
    vertex 36.588239776530266 11.000000000000002 1.8089108786919341
  endloop
endfacet
facet normal -0.6078401489798232 0.0 -0.7940594142053768
  outer loop
    vertex 36.588239776530266 6.0 1.808910878691936
    vertex 36.92758380177644 11.000000000000002 1.6135153459156881
    vertex 36.92758380177644 6.0 1.61351534591569
  endloop
endfacet
facet normal -0.12937530335395855 0.0 -0.9915956993059577
  outer loop
    vertex 37.30593704496906 11.000000000000002 1.5126064510410608
    vertex 36.92758380177644 6.0 1.61351534591569
    vertex 36.92758380177644 11.000000000000002 1.6135153459156881
  endloop
endfacet
facet normal -0.38161079881570537 0.0 -0.9243231027228731
  outer loop
    vertex 36.92758380177644 6.0 1.61351534591569
    vertex 37.30593704496906 11.000000000000002 1.5126064510410608
    vertex 37.30593704496906 6.0 1.5126064510410626
  endloop
endfacet
facet normal 0.13167690522856423 0.0 -0.991292687670714
  outer loop
    vertex 37.697515357842846 11.000000000000002 1.5130609684939262
    vertex 37.30593704496906 6.0 1.5126064510410626
    vertex 37.30593704496906 11.000000000000002 1.5126064510410608
  endloop
endfacet
facet normal -0.12937530335395855 0.0 -0.9915956993059576
  outer loop
    vertex 37.30593704496906 6.0 1.5126064510410626
    vertex 37.697515357842846 11.000000000000002 1.5130609684939262
    vertex 37.697515357842846 6.0 1.513060968493928
  endloop
endfacet
facet normal 0.38375555032613096 0.0 -0.9234347175593349
  outer loop
    vertex 38.07563332548919 11.000000000000002 1.6148479236609965
    vertex 37.697515357842846 6.0 1.513060968493928
    vertex 37.697515357842846 11.000000000000002 1.5130609684939262
  endloop
endfacet
facet normal 0.13167690522856423 0.0 -0.991292687670714
  outer loop
    vertex 37.697515357842846 6.0 1.513060968493928
    vertex 38.07563332548919 11.000000000000002 1.6148479236609965
    vertex 38.07563332548919 6.0 1.6148479236609983
  endloop
endfacet
facet normal 0.6096818888550062 0.0 -0.7926461974943121
  outer loop
    vertex 38.41452283328252 11.000000000000002 1.8110307037585327
    vertex 38.07563332548919 6.0 1.6148479236609983
    vertex 38.07563332548919 11.000000000000002 1.6148479236609965
  endloop
endfacet
facet normal 0.38375555032613096 0.0 -0.9234347175593349
  outer loop
    vertex 38.07563332548919 6.0 1.6148479236609983
    vertex 38.41452283328252 11.000000000000002 1.8110307037585327
    vertex 38.41452283328252 6.0 1.8110307037585345
  endloop
endfacet
facet normal 1.1363632853383467e-17 -1.0 3.444547194498384e-16
  outer loop
    vertex 79.5 9.0 2.9999999999999996
    vertex 43.5 9.000000000000004 -0.9999999999999999
    vertex 79.5 9.0 -0.9999999999999999
  endloop
endfacet
facet normal 1.1363632853383467e-17 -1.0 3.444547194498384e-16
  outer loop
    vertex 43.5 9.000000000000004 -0.9999999999999999
    vertex 79.5 9.0 2.9999999999999996
    vertex 56.0 9.000000000000004 2.9999999999999996
  endloop
endfacet
facet normal 1.1363632853383467e-17 -1.0 3.444547194498384e-16
  outer loop
    vertex 43.5 9.000000000000004 -0.9999999999999999
    vertex 56.0 9.000000000000004 2.9999999999999996
    vertex 43.5 9.000000000000005 5.499999999999999
  endloop
endfacet
facet normal 1.1363632853383467e-17 -1.0 3.444547194498384e-16
  outer loop
    vertex 43.5 9.000000000000005 5.499999999999999
    vertex 56.0 9.000000000000004 2.9999999999999996
    vertex 56.0 9.000000000000004 7.999999999999999
  endloop
endfacet
facet normal 1.1363632853383467e-17 -1.0 3.444547194498384e-16
  outer loop
    vertex 43.5 9.000000000000005 5.499999999999999
    vertex 56.0 9.000000000000004 7.999999999999999
    vertex 31.5 9.000000000000005 5.499999999999999
  endloop
endfacet
facet normal 1.1363632853383467e-17 -1.0 3.444547194498384e-16
  outer loop
    vertex 31.5 8.999999999999998 -0.9999999999999999
    vertex 25.999999999999996 9.000000000000002 3.0
    vertex 0.0 9.0 -0.9999999999999999
  endloop
endfacet
facet normal 1.1363632853383467e-17 -1.0 3.444547194498384e-16
  outer loop
    vertex 25.999999999999996 9.000000000000002 3.0
    vertex 31.5 8.999999999999998 -0.9999999999999999
    vertex 31.5 9.000000000000005 5.499999999999999
  endloop
endfacet
facet normal 1.1363632853383467e-17 -1.0 3.444547194498384e-16
  outer loop
    vertex 25.999999999999996 9.000000000000002 3.0
    vertex 31.5 9.000000000000005 5.499999999999999
    vertex 25.999999999999996 9.000000000000002 7.999999999999999
  endloop
endfacet
facet normal 1.1363632853383467e-17 -1.0 3.444547194498384e-16
  outer loop
    vertex 25.999999999999996 9.000000000000002 7.999999999999999
    vertex 31.5 9.000000000000005 5.499999999999999
    vertex 56.0 9.000000000000004 7.999999999999999
  endloop
endfacet
facet normal 1.1363632853383467e-17 -1.0 3.444547194498384e-16
  outer loop
    vertex -1.3557531166095657e-17 9.0 3.0
    vertex 0.0 9.0 -0.9999999999999999
    vertex 25.999999999999996 9.000000000000002 3.0
  endloop
endfacet
facet normal 1.7624790515924362e-16 -1.0 8.972620626288767e-16
  outer loop
    vertex 43.5 11.000000000000002 -1.0000000000000018
    vertex 38.07563332548919 11.000000000000002 1.6148479236609965
    vertex 31.5 11.0 -1.0000000000000018
  endloop
endfacet
facet normal 1.7624790515924362e-16 -1.0 8.972620626288767e-16
  outer loop
    vertex 38.07563332548919 11.000000000000002 1.6148479236609965
    vertex 43.5 11.000000000000002 -1.0000000000000018
    vertex 38.41452283328252 11.000000000000002 1.8110307037585327
  endloop
endfacet
facet normal 1.7624790515924362e-16 -1.0 8.972620626288767e-16
  outer loop
    vertex 38.41452283328252 11.000000000000002 1.8110307037585327
    vertex 43.5 11.000000000000002 -1.0000000000000018
    vertex 43.5 11.000000000000005 5.499999999999997
  endloop
endfacet
facet normal 1.7624790515924362e-16 -1.0 8.972620626288767e-16
  outer loop
    vertex 31.5 11.0 -1.0000000000000018
    vertex 38.07563332548919 11.000000000000002 1.6148479236609965
    vertex 37.697515357842846 11.000000000000002 1.5130609684939262
  endloop
endfacet
facet normal 1.7624790515924362e-16 -1.0 8.972620626288767e-16
  outer loop
    vertex 31.5 11.0 -1.0000000000000018
    vertex 37.697515357842846 11.000000000000002 1.5130609684939262
    vertex 37.30593704496906 11.000000000000002 1.5126064510410608
  endloop
endfacet
facet normal 1.7624790515924362e-16 -1.0 8.972620626288767e-16
  outer loop
    vertex 38.41452283328252 11.000000000000002 1.8110307037585327
    vertex 43.5 11.000000000000005 5.499999999999997
    vertex 38.69108912130807 11.000000000000002 2.0882397765302607
  endloop
endfacet
facet normal 1.7624790515924362e-16 -1.0 8.972620626288767e-16
  outer loop
    vertex 38.69108912130807 11.000000000000002 2.0882397765302607
    vertex 43.5 11.000000000000005 5.499999999999997
    vertex 38.886484654084306 11.000000000000002 2.4275838017764397
  endloop
endfacet
facet normal 1.7624790515924362e-16 -1.0 8.972620626288767e-16
  outer loop
    vertex 38.886484654084306 11.000000000000002 2.4275838017764397
    vertex 43.5 11.000000000000005 5.499999999999997
    vertex 38.987393548958934 11.000000000000002 2.8059370449690606
  endloop
endfacet
facet normal 1.7624790515924362e-16 -1.0 8.972620626288767e-16
  outer loop
    vertex 38.987393548958934 11.000000000000002 2.8059370449690606
    vertex 43.5 11.000000000000005 5.499999999999997
    vertex 38.98693903150607 11.000000000000002 3.197515357842843
  endloop
endfacet
facet normal 1.7624790515924362e-16 -1.0 8.972620626288767e-16
  outer loop
    vertex 38.98693903150607 11.000000000000002 3.197515357842843
    vertex 43.5 11.000000000000005 5.499999999999997
    vertex 38.885152076339004 11.000000000000002 3.5756333254891968
  endloop
endfacet
facet normal 1.7624790515924362e-16 -1.0 8.972620626288767e-16
  outer loop
    vertex 38.885152076339004 11.000000000000002 3.5756333254891968
    vertex 43.5 11.000000000000005 5.499999999999997
    vertex 38.68896929624147 11.000000000000002 3.9145228332825113
  endloop
endfacet
facet normal 1.7624790515924362e-16 -1.0 8.972620626288767e-16
  outer loop
    vertex 38.68896929624147 11.000000000000002 3.9145228332825113
    vertex 43.5 11.000000000000005 5.499999999999997
    vertex 38.411760223469734 11.000000000000002 4.191089121308062
  endloop
endfacet
facet normal 1.7624790515924362e-16 -1.0 8.972620626288767e-16
  outer loop
    vertex 38.411760223469734 11.000000000000002 4.191089121308062
    vertex 43.5 11.000000000000005 5.499999999999997
    vertex 38.07241619822356 11.000000000000002 4.386484654084309
  endloop
endfacet
facet normal 1.7624790515924362e-16 -1.0 8.972620626288767e-16
  outer loop
    vertex 38.07241619822356 11.000000000000002 4.386484654084309
    vertex 43.5 11.000000000000005 5.499999999999997
    vertex 37.69406295503094 11.000000000000002 4.487393548958935
  endloop
endfacet
facet normal 1.7624790515924362e-16 -1.0 8.972620626288767e-16
  outer loop
    vertex 31.5 11.0 -1.0000000000000018
    vertex 36.588239776530266 11.000000000000002 1.8089108786919341
    vertex 31.5 11.000000000000005 5.499999999999997
  endloop
endfacet
facet normal 1.7624790515924362e-16 -1.0 8.972620626288767e-16
  outer loop
    vertex 36.588239776530266 11.000000000000002 1.8089108786919341
    vertex 31.5 11.0 -1.0000000000000018
    vertex 36.92758380177644 11.000000000000002 1.6135153459156881
  endloop
endfacet
facet normal 1.7624790515924362e-16 -1.0 8.972620626288767e-16
  outer loop
    vertex 36.92758380177644 11.000000000000002 1.6135153459156881
    vertex 31.5 11.0 -1.0000000000000018
    vertex 37.30593704496906 11.000000000000002 1.5126064510410608
  endloop
endfacet
facet normal 1.7624790515924362e-16 -1.0 8.972620626288767e-16
  outer loop
    vertex 31.5 11.000000000000005 5.499999999999997
    vertex 36.588239776530266 11.000000000000002 1.8089108786919341
    vertex 36.31103070375853 11.000000000000002 2.0854771667174843
  endloop
endfacet
facet normal 1.7624790515924362e-16 -1.0 8.972620626288767e-16
  outer loop
    vertex 31.5 11.000000000000005 5.499999999999997
    vertex 36.31103070375853 11.000000000000002 2.0854771667174843
    vertex 36.114847923660996 11.000000000000002 2.4243666745107992
  endloop
endfacet
facet normal 1.7624790515924362e-16 -1.0 8.972620626288767e-16
  outer loop
    vertex 31.5 11.000000000000005 5.499999999999997
    vertex 36.114847923660996 11.000000000000002 2.4243666745107992
    vertex 36.013060968493924 11.000000000000002 2.802484642157154
  endloop
endfacet
facet normal 1.7624790515924362e-16 -1.0 8.972620626288767e-16
  outer loop
    vertex 31.5 11.000000000000005 5.499999999999997
    vertex 36.013060968493924 11.000000000000002 2.802484642157154
    vertex 36.01260645104106 11.000000000000002 3.1940629550309363
  endloop
endfacet
facet normal 1.7624790515924362e-16 -1.0 8.972620626288767e-16
  outer loop
    vertex 31.5 11.000000000000005 5.499999999999997
    vertex 36.01260645104106 11.000000000000002 3.1940629550309363
    vertex 36.11351534591569 11.000000000000002 3.572416198223557
  endloop
endfacet
facet normal 1.7624790515924362e-16 -1.0 8.972620626288767e-16
  outer loop
    vertex 31.5 11.000000000000005 5.499999999999997
    vertex 36.11351534591569 11.000000000000002 3.572416198223557
    vertex 36.30891087869193 11.000000000000002 3.911760223469736
  endloop
endfacet
facet normal 1.7624790515924362e-16 -1.0 8.972620626288767e-16
  outer loop
    vertex 31.5 11.000000000000005 5.499999999999997
    vertex 36.30891087869193 11.000000000000002 3.911760223469736
    vertex 36.58547716671748 11.000000000000002 4.1889692962414635
  endloop
endfacet
facet normal 1.7624790515924362e-16 -1.0 8.972620626288767e-16
  outer loop
    vertex 31.5 11.000000000000005 5.499999999999997
    vertex 36.58547716671748 11.000000000000002 4.1889692962414635
    vertex 36.9243666745108 11.000000000000002 4.385152076339
  endloop
endfacet
facet normal 1.7624790515924362e-16 -1.0 8.972620626288767e-16
  outer loop
    vertex 31.5 11.000000000000005 5.499999999999997
    vertex 36.9243666745108 11.000000000000002 4.385152076339
    vertex 37.302484642157154 11.000000000000002 4.48693903150607
  endloop
endfacet
facet normal 1.7624790515924362e-16 -1.0 8.972620626288767e-16
  outer loop
    vertex 31.5 11.000000000000005 5.499999999999997
    vertex 37.302484642157154 11.000000000000002 4.48693903150607
    vertex 37.69406295503094 11.000000000000002 4.487393548958935
  endloop
endfacet
facet normal 1.7624790515924362e-16 -1.0 8.972620626288767e-16
  outer loop
    vertex 31.5 11.000000000000005 5.499999999999997
    vertex 37.69406295503094 11.000000000000002 4.487393548958935
    vertex 43.5 11.000000000000005 5.499999999999997
  endloop
endfacet
facet normal -1.0 -1.7624790515924364e-16 9.036603366697233e-32
  outer loop
    vertex 43.5 9.000000000000005 5.499999999999999
    vertex 43.5 11.000000000000002 -1.0000000000000018
    vertex 43.5 9.000000000000004 -0.9999999999999999
  endloop
endfacet
facet normal -1.0 -1.7624790515924364e-16 9.036603366697233e-32
  outer loop
    vertex 43.5 11.000000000000002 -1.0000000000000018
    vertex 43.5 9.000000000000005 5.499999999999999
    vertex 43.5 11.000000000000005 5.499999999999997
  endloop
endfacet
facet normal -0.0 -8.97262062628877e-16 -1.0
  outer loop
    vertex 43.5 11.000000000000005 5.499999999999997
    vertex 31.5 9.000000000000005 5.499999999999999
    vertex 31.5 11.000000000000005 5.499999999999997
  endloop
endfacet
facet normal -0.0 -8.97262062628877e-16 -1.0
  outer loop
    vertex 31.5 9.000000000000005 5.499999999999999
    vertex 43.5 11.000000000000005 5.499999999999997
    vertex 43.5 9.000000000000005 5.499999999999999
  endloop
endfacet
facet normal 1.0 1.7624790515924364e-16 -2.2591508416743083e-31
  outer loop
    vertex 31.5 11.0 -1.0000000000000018
    vertex 31.5 9.000000000000005 5.499999999999999
    vertex 31.5 8.999999999999998 -0.9999999999999999
  endloop
endfacet
facet normal 1.0 1.7624790515924364e-16 -2.2591508416743083e-31
  outer loop
    vertex 31.5 9.000000000000005 5.499999999999999
    vertex 31.5 11.0 -1.0000000000000018
    vertex 31.5 11.000000000000005 5.499999999999997
  endloop
endfacet
facet normal -1.0 0.0 0.0
  outer loop
    vertex 56.0 9.000000000000004 7.999999999999999
    vertex 56.0 6.0 2.9999999999999996
    vertex 56.0 6.0 7.999999999999999
  endloop
endfacet
facet normal -1.0 0.0 0.0
  outer loop
    vertex 56.0 6.0 2.9999999999999996
    vertex 56.0 9.000000000000004 7.999999999999999
    vertex 56.0 9.000000000000004 2.9999999999999996
  endloop
endfacet
facet normal 1.0 -0.0 -0.0
  outer loop
    vertex 25.999999999999996 9.000000000000002 3.0
    vertex 25.999999999999996 6.0 7.999999999999999
    vertex 25.999999999999996 6.0 3.0
  endloop
endfacet
facet normal 1.0 -0.0 -0.0
  outer loop
    vertex 25.999999999999996 6.0 7.999999999999999
    vertex 25.999999999999996 9.000000000000002 3.0
    vertex 25.999999999999996 9.000000000000002 7.999999999999999
  endloop
endfacet
facet normal 6.778765583047829e-18 5.874930171974783e-17 -1.0
  outer loop
    vertex 25.999999999999996 9.000000000000002 3.0
    vertex -1.3557531166095657e-17 6.0 3.0
    vertex -1.3557531166095657e-17 9.0 3.0
  endloop
endfacet
facet normal 6.778765583047829e-18 5.874930171974783e-17 -1.0
  outer loop
    vertex -1.3557531166095657e-17 6.0 3.0
    vertex 25.999999999999996 9.000000000000002 3.0
    vertex 25.999999999999996 6.0 3.0
  endloop
endfacet
facet normal -0.0 1.0 -0.0
  outer loop
    vertex -1.3557531166095657e-17 6.0 3.0
    vertex 25.999999999999996 6.0 1.0000000000000002
    vertex 0.0 6.0 0.9999999999999999
  endloop
endfacet
facet normal -0.0 1.0 -0.0
  outer loop
    vertex 25.999999999999996 6.0 1.0000000000000002
    vertex -1.3557531166095657e-17 6.0 3.0
    vertex 25.999999999999996 6.0 3.0
  endloop
endfacet
facet normal 7.662952398227978e-18 -5.87493017197478e-17 -1.0
  outer loop
    vertex 79.5 9.0 2.9999999999999996
    vertex 56.0 6.0 2.9999999999999996
    vertex 56.0 9.000000000000004 2.9999999999999996
  endloop
endfacet
facet normal 7.662952398227978e-18 -5.87493017197478e-17 -1.0
  outer loop
    vertex 56.0 6.0 2.9999999999999996
    vertex 79.5 9.0 2.9999999999999996
    vertex 79.5 6.0 3.0
  endloop
endfacet
facet normal 9.003862050151214e-34 1.0 -5.87493017197478e-17
  outer loop
    vertex 56.0 6.0 2.9999999999999996
    vertex 79.5 6.0 0.9999999999999999
    vertex 56.0 6.0 0.9999999999999996
  endloop
endfacet
facet normal 9.003862050151214e-34 1.0 -5.87493017197478e-17
  outer loop
    vertex 79.5 6.0 0.9999999999999999
    vertex 56.0 6.0 2.9999999999999996
    vertex 79.5 6.0 3.0
  endloop
endfacet
facet normal -1.0 0.0 0.0
  outer loop
    vertex 41.00000000000001 3.9999999999999996 7.999999999999999
    vertex 41.00000000000001 1.9999999999999998 1.9999999999999991
    vertex 41.00000000000001 1.9999999999999998 7.999999999999999
  endloop
endfacet
facet normal -1.0 0.0 0.0
  outer loop
    vertex 41.00000000000001 1.9999999999999998 1.9999999999999991
    vertex 41.00000000000001 3.9999999999999996 7.999999999999999
    vertex 41.00000000000001 3.9999999999999996 1.9999999999999991
  endloop
endfacet
facet normal 0.0 0.0 -1.0
  outer loop
    vertex 51.00000000000002 3.9999999999999996 1.9999999999999991
    vertex 41.00000000000001 1.9999999999999998 1.9999999999999991
    vertex 41.00000000000001 3.9999999999999996 1.9999999999999991
  endloop
endfacet
facet normal 0.0 0.0 -1.0
  outer loop
    vertex 41.00000000000001 1.9999999999999998 1.9999999999999991
    vertex 51.00000000000002 3.9999999999999996 1.9999999999999991
    vertex 51.00000000000002 1.9999999999999998 1.9999999999999991
  endloop
endfacet
facet normal 0.0 -1.0 0.0
  outer loop
    vertex 79.5 3.9999999999999996 0.9999999999999999
    vertex 77.5 3.9999999999999996 7.999999999999999
    vertex 77.5 3.9999999999999996 0.9999999999999996
  endloop
endfacet
facet normal 0.0 -1.0 0.0
  outer loop
    vertex 77.5 3.9999999999999996 7.999999999999999
    vertex 79.5 3.9999999999999996 0.9999999999999999
    vertex 79.5 3.9999999999999996 7.999999999999999
  endloop
endfacet
facet normal 0.0 -1.0 0.0
  outer loop
    vertex 77.5 2.0000000000000013 7.999999999999999
    vertex 57.50000000000001 2.0000000000000013 0.9999999999999996
    vertex 77.5 2.0000000000000013 0.9999999999999996
  endloop
endfacet
facet normal 0.0 -1.0 0.0
  outer loop
    vertex 57.50000000000001 2.0000000000000013 0.9999999999999996
    vertex 77.5 2.0000000000000013 7.999999999999999
    vertex 57.50000000000001 2.0000000000000013 7.999999999999999
  endloop
endfacet
facet normal 1.0 0.0 -0.0
  outer loop
    vertex 77.5 3.9999999999999996 0.9999999999999996
    vertex 77.5 2.0000000000000013 7.999999999999999
    vertex 77.5 2.0000000000000013 0.9999999999999996
  endloop
endfacet
facet normal 1.0 0.0 -0.0
  outer loop
    vertex 77.5 2.0000000000000013 7.999999999999999
    vertex 77.5 3.9999999999999996 0.9999999999999996
    vertex 77.5 3.9999999999999996 7.999999999999999
  endloop
endfacet
facet normal -1.0 -0.0 -0.0
  outer loop
    vertex 57.50000000000001 3.9999999999999996 7.999999999999999
    vertex 57.50000000000001 2.0000000000000013 0.9999999999999996
    vertex 57.50000000000001 2.0000000000000013 7.999999999999999
  endloop
endfacet
facet normal -1.0 -0.0 -0.0
  outer loop
    vertex 57.50000000000001 2.0000000000000013 0.9999999999999996
    vertex 57.50000000000001 3.9999999999999996 7.999999999999999
    vertex 57.50000000000001 3.9999999999999996 0.9999999999999996
  endloop
endfacet
facet normal 0.0 -1.0 0.0
  outer loop
    vertex 57.50000000000001 3.9999999999999996 0.9999999999999996
    vertex 37.76189050059874 3.9999999999999982 1.4191517434500096
    vertex 25.999999999999996 3.9999999999999996 0.9999999999999996
  endloop
endfacet
facet normal 0.0 -1.0 0.0
  outer loop
    vertex 37.76189050059874 3.9999999999999982 1.4191517434500096
    vertex 57.50000000000001 3.9999999999999996 0.9999999999999996
    vertex 51.00000000000002 3.9999999999999996 1.9999999999999991
  endloop
endfacet
facet normal 0.0 -1.0 0.0
  outer loop
    vertex 51.00000000000002 3.9999999999999996 1.9999999999999991
    vertex 57.50000000000001 3.9999999999999996 0.9999999999999996
    vertex 57.50000000000001 3.9999999999999996 7.999999999999999
  endloop
endfacet
facet normal 0.0 -1.0 0.0
  outer loop
    vertex 25.999999999999996 3.9999999999999996 0.9999999999999996
    vertex 37.76189050059874 3.9999999999999982 1.4191517434500096
    vertex 37.343813161975845 3.9999999999999982 1.40523559226793
  endloop
endfacet
facet normal 0.0 -1.0 0.0
  outer loop
    vertex 37.76189050059874 3.9999999999999982 1.4191517434500096
    vertex 51.00000000000002 3.9999999999999996 1.9999999999999991
    vertex 38.16212043440035 3.9999999999999982 1.5408000908407056
  endloop
endfacet
facet normal 0.0 -1.0 0.0
  outer loop
    vertex 38.16212043440035 3.9999999999999982 1.5408000908407056
    vertex 51.00000000000002 3.9999999999999996 1.9999999999999991
    vertex 38.51722795480333 3.9999999999999982 1.7618905005987406
  endloop
endfacet
facet normal 0.0 -1.0 0.0
  outer loop
    vertex 51.00000000000002 3.9999999999999996 1.9999999999999991
    vertex 57.50000000000001 3.9999999999999996 7.999999999999999
    vertex 51.00000000000002 3.9999999999999996 7.999999999999999
  endloop
endfacet
facet normal 0.0 -1.0 0.0
  outer loop
    vertex 38.51722795480333 3.9999999999999982 1.7618905005987406
    vertex 41.00000000000001 3.9999999999999996 1.9999999999999991
    vertex 38.80301307113514 3.9999999999999982 2.067356026668281
  endloop
endfacet
facet normal 0.0 -1.0 0.0
  outer loop
    vertex 41.00000000000001 3.9999999999999996 1.9999999999999991
    vertex 38.51722795480333 3.9999999999999982 1.7618905005987406
    vertex 51.00000000000002 3.9999999999999996 1.9999999999999991
  endloop
endfacet
facet normal 0.0 -1.0 0.0
  outer loop
    vertex 38.80301307113514 3.9999999999999982 2.067356026668281
    vertex 41.00000000000001 3.9999999999999996 1.9999999999999991
    vertex 39.0 3.9999999999999982 2.436379698253341
  endloop
endfacet
facet normal 0.0 -1.0 0.0
  outer loop
    vertex 39.0 3.9999999999999982 2.436379698253341
    vertex 41.00000000000001 3.9999999999999996 1.9999999999999991
    vertex 41.00000000000001 3.9999999999999996 7.999999999999999
  endloop
endfacet
facet normal 0.0 -1.0 0.0
  outer loop
    vertex 39.0 3.9999999999999982 2.436379698253341
    vertex 41.00000000000001 3.9999999999999996 7.999999999999999
    vertex 39.09476440773207 3.9999999999999982 2.843813161975846
  endloop
endfacet
facet normal 0.0 -1.0 0.0
  outer loop
    vertex 39.09476440773207 3.9999999999999982 2.843813161975846
    vertex 41.00000000000001 3.9999999999999996 7.999999999999999
    vertex 39.08084825654999 3.9999999999999982 3.261890500598744
  endloop
endfacet
facet normal 0.0 -1.0 0.0
  outer loop
    vertex 39.08084825654999 3.9999999999999982 3.261890500598744
    vertex 41.00000000000001 3.9999999999999996 7.999999999999999
    vertex 38.959199909159295 3.9999999999999982 3.6621204344003524
  endloop
endfacet
facet normal 0.0 -1.0 0.0
  outer loop
    vertex 38.959199909159295 3.9999999999999982 3.6621204344003524
    vertex 41.00000000000001 3.9999999999999996 7.999999999999999
    vertex 38.73810949940126 3.9999999999999982 4.017227954803331
  endloop
endfacet
facet normal 0.0 -1.0 0.0
  outer loop
    vertex 38.73810949940126 3.9999999999999982 4.017227954803331
    vertex 41.00000000000001 3.9999999999999996 7.999999999999999
    vertex 38.432643973331714 3.9999999999999982 4.30301307113514
  endloop
endfacet
facet normal 0.0 -1.0 0.0
  outer loop
    vertex 38.432643973331714 3.9999999999999982 4.30301307113514
    vertex 41.00000000000001 3.9999999999999996 7.999999999999999
    vertex 38.06362030174666 3.9999999999999982 4.500000000000003
  endloop
endfacet
facet normal 0.0 -1.0 0.0
  outer loop
    vertex 38.06362030174666 3.9999999999999982 4.500000000000003
    vertex 41.00000000000001 3.9999999999999996 7.999999999999999
    vertex 37.656186838024155 3.9999999999999982 4.594764407732069
  endloop
endfacet
facet normal 0.0 -1.0 0.0
  outer loop
    vertex 25.999999999999996 3.9999999999999996 0.9999999999999996
    vertex 36.56735602666828 3.9999999999999982 1.69698692886486
    vertex 25.999999999999996 3.9999999999999996 7.999999999999999
  endloop
endfacet
facet normal 0.0 -1.0 0.0
  outer loop
    vertex 36.56735602666828 3.9999999999999982 1.69698692886486
    vertex 25.999999999999996 3.9999999999999996 0.9999999999999996
    vertex 36.93637969825334 3.9999999999999982 1.4999999999999971
  endloop
endfacet
facet normal 0.0 -1.0 0.0
  outer loop
    vertex 36.93637969825334 3.9999999999999982 1.4999999999999971
    vertex 25.999999999999996 3.9999999999999996 0.9999999999999996
    vertex 37.343813161975845 3.9999999999999982 1.40523559226793
  endloop
endfacet
facet normal 0.0 -1.0 0.0
  outer loop
    vertex 25.999999999999996 3.9999999999999996 7.999999999999999
    vertex 36.56735602666828 3.9999999999999982 1.69698692886486
    vertex 36.26189050059874 3.9999999999999982 1.9827720451966695
  endloop
endfacet
facet normal 0.0 -1.0 0.0
  outer loop
    vertex 25.999999999999996 3.9999999999999996 7.999999999999999
    vertex 36.26189050059874 3.9999999999999982 1.9827720451966695
    vertex 36.040800090840705 3.9999999999999982 2.3378795655996476
  endloop
endfacet
facet normal 0.0 -1.0 0.0
  outer loop
    vertex 25.999999999999996 3.9999999999999996 7.999999999999999
    vertex 36.040800090840705 3.9999999999999982 2.3378795655996476
    vertex 35.91915174345001 3.9999999999999982 2.7381094994012565
  endloop
endfacet
facet normal 0.0 -1.0 0.0
  outer loop
    vertex 25.999999999999996 3.9999999999999996 7.999999999999999
    vertex 35.91915174345001 3.9999999999999982 2.7381094994012565
    vertex 35.90523559226793 3.9999999999999982 3.156186838024154
  endloop
endfacet
facet normal 0.0 -1.0 0.0
  outer loop
    vertex 25.999999999999996 3.9999999999999996 7.999999999999999
    vertex 35.90523559226793 3.9999999999999982 3.156186838024154
    vertex 35.99999999999999 3.9999999999999982 3.5636203017466586
  endloop
endfacet
facet normal 0.0 -1.0 0.0
  outer loop
    vertex 25.999999999999996 3.9999999999999996 7.999999999999999
    vertex 35.99999999999999 3.9999999999999982 3.5636203017466586
    vertex 36.19698692886486 3.9999999999999982 3.9326439733317176
  endloop
endfacet
facet normal 0.0 -1.0 0.0
  outer loop
    vertex 25.999999999999996 3.9999999999999996 7.999999999999999
    vertex 36.19698692886486 3.9999999999999982 3.9326439733317176
    vertex 36.48277204519667 3.9999999999999982 4.238109499401259
  endloop
endfacet
facet normal 0.0 -1.0 0.0
  outer loop
    vertex 25.999999999999996 3.9999999999999996 7.999999999999999
    vertex 36.48277204519667 3.9999999999999982 4.238109499401259
    vertex 36.83787956559964 3.9999999999999982 4.4591999091592935
  endloop
endfacet
facet normal 0.0 -1.0 0.0
  outer loop
    vertex 25.999999999999996 3.9999999999999996 7.999999999999999
    vertex 36.83787956559964 3.9999999999999982 4.4591999091592935
    vertex 37.238109499401254 3.9999999999999982 4.580848256549989
  endloop
endfacet
facet normal 0.0 -1.0 0.0
  outer loop
    vertex 25.999999999999996 3.9999999999999996 7.999999999999999
    vertex 37.238109499401254 3.9999999999999982 4.580848256549989
    vertex 37.656186838024155 3.9999999999999982 4.594764407732069
  endloop
endfacet
facet normal 0.0 -1.0 0.0
  outer loop
    vertex 25.999999999999996 3.9999999999999996 7.999999999999999
    vertex 37.656186838024155 3.9999999999999982 4.594764407732069
    vertex 41.00000000000001 3.9999999999999996 7.999999999999999
  endloop
endfacet
facet normal 0.0 -1.0 0.0
  outer loop
    vertex 4.000000000000001 3.9999999999999996 7.999999999999999
    vertex 0.0 3.9999999999999996 0.9999999999999999
    vertex 4.000000000000002 3.9999999999999996 0.9999999999999998
  endloop
endfacet
facet normal 0.0 -1.0 0.0
  outer loop
    vertex 0.0 3.9999999999999996 0.9999999999999999
    vertex 4.000000000000001 3.9999999999999996 7.999999999999999
    vertex 0.0 3.9999999999999996 7.999999999999999
  endloop
endfacet
facet normal 0.0 -1.0 0.0
  outer loop
    vertex 25.999999999999996 2.0000000000000004 7.999999999999999
    vertex 4.000000000000002 2.0000000000000004 0.9999999999999998
    vertex 25.999999999999996 2.0000000000000004 0.9999999999999996
  endloop
endfacet
facet normal 0.0 -1.0 0.0
  outer loop
    vertex 4.000000000000002 2.0000000000000004 0.9999999999999998
    vertex 25.999999999999996 2.0000000000000004 7.999999999999999
    vertex 4.000000000000001 2.0000000000000004 7.999999999999999
  endloop
endfacet
facet normal -1.0 -0.0 -1.0071308866242491e-16
  outer loop
    vertex 4.000000000000001 3.9999999999999996 7.999999999999999
    vertex 4.000000000000002 2.0000000000000004 0.9999999999999998
    vertex 4.000000000000001 2.0000000000000004 7.999999999999999
  endloop
endfacet
facet normal -1.0 -0.0 -1.0071308866242491e-16
  outer loop
    vertex 4.000000000000002 2.0000000000000004 0.9999999999999998
    vertex 4.000000000000001 3.9999999999999996 7.999999999999999
    vertex 4.000000000000002 3.9999999999999996 0.9999999999999998
  endloop
endfacet
facet normal 1.0 0.0 -0.0
  outer loop
    vertex 25.999999999999996 3.9999999999999996 0.9999999999999996
    vertex 25.999999999999996 2.0000000000000004 7.999999999999999
    vertex 25.999999999999996 2.0000000000000004 0.9999999999999996
  endloop
endfacet
facet normal 1.0 0.0 -0.0
  outer loop
    vertex 25.999999999999996 2.0000000000000004 7.999999999999999
    vertex 25.999999999999996 3.9999999999999996 0.9999999999999996
    vertex 25.999999999999996 3.9999999999999996 7.999999999999999
  endloop
endfacet
facet normal 1.0 -0.0 -0.0
  outer loop
    vertex 51.00000000000002 3.9999999999999996 1.9999999999999991
    vertex 51.00000000000002 1.9999999999999998 8.0
    vertex 51.00000000000002 1.9999999999999998 1.9999999999999991
  endloop
endfacet
facet normal 1.0 -0.0 -0.0
  outer loop
    vertex 51.00000000000002 1.9999999999999998 8.0
    vertex 51.00000000000002 3.9999999999999996 1.9999999999999991
    vertex 51.00000000000002 3.9999999999999996 7.999999999999999
  endloop
endfacet
facet normal 0.0 -1.0 0.0
  outer loop
    vertex 51.00000000000002 1.9999999999999998 8.0
    vertex 41.00000000000001 1.9999999999999998 1.9999999999999991
    vertex 51.00000000000002 1.9999999999999998 1.9999999999999991
  endloop
endfacet
facet normal 0.0 -1.0 0.0
  outer loop
    vertex 41.00000000000001 1.9999999999999998 1.9999999999999991
    vertex 51.00000000000002 1.9999999999999998 8.0
    vertex 41.00000000000001 1.9999999999999998 7.999999999999999
  endloop
endfacet
facet normal 0.0 0.0 1.0
  outer loop
    vertex 79.5 0.0 -0.9999999999999999
    vertex 0.0 9.0 -0.9999999999999999
    vertex 0.0 0.0 -0.9999999999999999
  endloop
endfacet
facet normal 0.0 0.0 1.0
  outer loop
    vertex 0.0 9.0 -0.9999999999999999
    vertex 79.5 0.0 -0.9999999999999999
    vertex 31.5 8.999999999999998 -0.9999999999999999
  endloop
endfacet
facet normal 0.0 0.0 1.0
  outer loop
    vertex 31.5 8.999999999999998 -0.9999999999999999
    vertex 79.5 0.0 -0.9999999999999999
    vertex 31.5 11.0 -1.0000000000000018
  endloop
endfacet
facet normal 0.0 0.0 1.0
  outer loop
    vertex 31.5 11.0 -1.0000000000000018
    vertex 79.5 0.0 -0.9999999999999999
    vertex 43.5 9.000000000000004 -0.9999999999999999
  endloop
endfacet
facet normal 0.0 0.0 1.0
  outer loop
    vertex 43.5 9.000000000000004 -0.9999999999999999
    vertex 79.5 0.0 -0.9999999999999999
    vertex 79.5 9.0 -0.9999999999999999
  endloop
endfacet
facet normal 0.0 0.0 1.0
  outer loop
    vertex 43.5 11.000000000000002 -1.0000000000000018
    vertex 31.5 11.0 -1.0000000000000018
    vertex 43.5 9.000000000000004 -0.9999999999999999
  endloop
endfacet
endsolid front cover
